<?xml version="1.0" standalone="no"?>
<!DOCTYPE svg PUBLIC "-//W3C//DTD SVG 1.1//EN" "http://www.w3.org/Graphics/SVG/1.1/DTD/svg11.dtd" >
<svg>
<metadata>
Created by FontForge 20090622 at Mon Apr  3 17:58:50 2017
 By deploy user
Digitized data copyright &#194;&#169; 1991-99 The Monotype Corporation, Inc. All rights reserved. Generic&#194;&#174; is a trademark of The Monotype Corporation, Inc. which may be registered in certain jurisdictions.
</metadata>
<defs>
<font id="TimesNRCondensedBold" horiz-adv-x="918" >
  <font-face 
    font-family="Times NR Condensed"
    font-weight="800"
    font-stretch="normal"
    units-per-em="2048"
    panose-1="2 2 8 3 5 4 5 2 3 4"
    ascent="1638"
    descent="-410"
    x-height="944"
    cap-height="1397"
    bbox="-305 -512 2060 1880"
    underline-thickness="102"
    underline-position="-154"
    unicode-range="U+0020-U+F006"
  />
<missing-glyph horiz-adv-x="1024" 
d="M51 0v1536h922v-1536h-922zM179 128h666v1280h-666v-1280z" />
    <glyph glyph-name=".notdef" horiz-adv-x="1024" 
d="M51 0v1536h922v-1536h-922zM179 128h666v1280h-666v-1280z" />
    <glyph glyph-name=".null" horiz-adv-x="0" 
 />
    <glyph glyph-name="nonmarkingreturn" horiz-adv-x="389" 
 />
    <glyph glyph-name="space" unicode=" " horiz-adv-x="389" 
 />
    <glyph glyph-name="exclam" unicode="!" horiz-adv-x="512" 
d="M276 453h-45v10v4q0 65 -13.5 159t-33.5 181l-39 174q-43 195 -43 279q0 79 41 124.5t111 45.5q75 0 116.5 -44t41.5 -120q0 -75 -45 -283q-48 -212 -67 -324t-24 -206zM106 125q0 63 44 107t106 44t107 -44t45 -107q0 -60 -45 -105t-107 -45t-106 45t-44 105z" />
    <glyph glyph-name="quotedbl" unicode="&#x22;" horiz-adv-x="1137" 
d="M834 764h-50l-104 383q-18 68 -18 129q0 66 41.5 110t103.5 44q63 0 106 -43t43 -105q0 -41 -24 -135zM352 764h-49l-104 383q-19 66 -19 129q0 66 42 110t104 44q63 0 106 -43t43 -105q0 -41 -24 -135z" />
    <glyph glyph-name="numbersign" unicode="#" horiz-adv-x="1368" 
d="M401 1024l82 391h166l-82 -391h375l82 391h166l-82 -391h178v-166h-213l-67 -326h280v-165h-315l-82 -390h-166l82 390h-375l-82 -390h-166l82 390h-180v165h215l68 326h-283v166h317zM907 858h-375l-67 -326h375z" />
    <glyph glyph-name="dollar" unicode="$" 
d="M422 47v512l-199 156q-157 124 -157 299q0 99 44 177t124 125t188 58v92h76v-92q64 -5 117 -17t106.5 -33.5t89.5 -45.5v-299h-35q-29 134 -101.5 219t-176.5 109v-461l180 -135q178 -135 178 -342q0 -158 -94.5 -259.5t-263.5 -125.5v-115h-76v113q-88 1 -183.5 22.5
t-160.5 56.5v316h37q37 -160 110.5 -239t196.5 -91zM498 502v-451q77 18 118 67t41 122q0 70 -35.5 129t-123.5 133zM422 905v406q-73 -4 -121.5 -52t-48.5 -116q0 -60 34.5 -109t135.5 -129z" />
    <glyph glyph-name="percent" unicode="%" horiz-adv-x="1450" 
d="M1057 37q21 0 30.5 13.5t14 57.5t4.5 142v229q0 92 -3.5 137.5t-13 59.5t-32.5 14q-27 0 -35 -32.5t-8 -159.5v-285q0 -101 9 -138.5t34 -37.5zM815 362q0 177 64.5 277t179.5 100q75 0 130.5 -44t85.5 -126.5t30 -197.5q0 -128 -31 -213.5t-86 -127.5t-129 -42
q-115 0 -179.5 99.5t-64.5 274.5zM367 -12h-97l815 1431h95zM147 1044q0 177 65 277t179 100q76 0 131 -44t85 -126.5t30 -197.5q0 -191 -66 -287t-180 -96q-76 0 -131 44.5t-84 129t-29 200.5zM389 719q21 0 30.5 13.5t14 57.5t4.5 142v229q0 92 -3.5 137.5t-13 59.5
t-32.5 14q-27 0 -35 -32.5t-8 -159.5v-285q0 -101 9 -138.5t34 -37.5z" />
    <glyph glyph-name="ampersand" unicode="&#x26;" horiz-adv-x="1217" 
d="M1149 211l27 -18q-40 -105 -104 -164.5t-136 -59.5q-36 0 -65.5 13t-62 41.5t-99.5 101.5q-49 -52 -98 -86t-101 -52t-104 -18q-99 0 -180.5 56t-128 154t-46.5 216q0 138 71.5 240t213.5 166q-51 110 -51 243q0 108 42 196.5t115 139t162 50.5q66 0 122.5 -32t88 -88.5
t31.5 -129.5q0 -99 -61 -176t-201 -152q76 -168 133 -274t108 -168q46 64 72.5 136t26.5 126q0 114 -109 129v35h361v-35q-55 -10 -89.5 -44t-68.5 -112l-60 -137q-39 -92 -84 -166q81 -112 124 -149t75 -37q25 0 40.5 11.5t35.5 43.5zM659 186q-69 76 -168 253t-133 296
q-92 -61 -92 -135q0 -42 24 -120t67 -157t97 -130.5t109 -51.5q45 0 96 45zM555 915q67 34 94 69t27 93q0 39 -12 103.5t-41 115t-76 50.5q-74 0 -74 -115q0 -44 12.5 -99t31 -111t38.5 -106z" />
    <glyph glyph-name="quotesingle" unicode="'" horiz-adv-x="569" 
d="M309 764h-49l-104 383q-19 66 -19 129q0 66 42 110t104 44q63 0 106 -43t43 -105q0 -41 -24 -135z" />
    <glyph glyph-name="parenleft" unicode="(" horiz-adv-x="598" 
d="M569 -338v-65q-100 45 -192.5 128t-164.5 202t-112.5 264.5t-40.5 310.5q0 156 37.5 302t105.5 270t162 217t205 139v-64q-89 -44 -150 -154.5t-92.5 -286t-31.5 -397.5q0 -187 13.5 -323t46 -244t85.5 -182t129 -117z" />
    <glyph glyph-name="parenright" unicode=")" horiz-adv-x="598" 
d="M29 1364v66q103 -45 194.5 -128t163.5 -202t112 -264.5t40 -311.5q0 -155 -37 -300.5t-106.5 -272t-163 -218t-203.5 -136.5v63q134 65 204 281t70 557q0 187 -14 324.5t-45.5 244.5t-84.5 181t-130 116z" />
    <glyph glyph-name="asterisk" unicode="*" 
d="M549 1333q0 -31 -7.5 -51.5t-26.5 -62t-28.5 -75t-9.5 -67.5q35 7 64 27.5t67 56.5t63.5 53t57.5 17q27 0 47 -11.5t31.5 -31.5t11.5 -45q0 -44 -28.5 -73.5t-69.5 -29.5q-12 0 -63.5 8.5t-73.5 8.5q-56 0 -107 -17q35 -42 111.5 -84t102.5 -63t26 -68q0 -40 -25 -66
t-65 -26q-64 0 -83 40t-38 127.5t-49 115.5q-31 -27 -48 -114t-36 -128t-82 -41q-40 0 -65 25t-25 65q0 39 21.5 62.5t58 43.5t82 48.5t69.5 62.5q-48 17 -88 17q-25 0 -78 -7.5t-57 -7.5q-49 0 -81 29t-32 72q0 39 26.5 63.5t67.5 24.5q34 0 60 -17t60 -51t64.5 -56.5
t65.5 -29.5q0 40 -10 73.5t-29 73t-26.5 61.5t-7.5 42q0 44 26 72t68 28q39 0 63.5 -27t24.5 -67z" />
    <glyph glyph-name="plus" unicode="+" horiz-adv-x="1366" 
d="M131 786h461v463h180v-463h463v-180h-463v-463h-180v463h-461v180z" />
    <glyph glyph-name="comma" unicode="," horiz-adv-x="512" 
d="M115 -369v45q59 30 102.5 74.5t70.5 100.5t27 106q0 19 -6 30t-16 11q-1 0 -31 -10q-26 -13 -47 -13q-56 0 -91.5 40.5t-35.5 101.5q0 68 42 112.5t108 44.5q85 0 136.5 -65t51.5 -170q0 -135 -83 -244.5t-228 -163.5z" />
    <glyph glyph-name="hyphen" unicode="-" horiz-adv-x="598" 
d="M37 377v196h522v-196h-522z" />
    <glyph glyph-name="period" unicode="." horiz-adv-x="512" 
d="M258 276q64 0 107 -43t43 -106q0 -64 -43 -108t-107 -44q-43 0 -77 20.5t-54.5 54.5t-20.5 77q0 63 44 106t108 43z" />
    <glyph glyph-name="slash" unicode="/" horiz-adv-x="575" 
d="M377 1397h198l-378 -1428h-197z" />
    <glyph glyph-name="zero" unicode="0" 
d="M66 696q0 360 108.5 541.5t284.5 181.5q76 0 144.5 -37t124.5 -120t90 -225.5t34 -340.5t-34.5 -342t-89.5 -225t-124.5 -117.5t-144.5 -36.5q-168 0 -280.5 176t-112.5 545zM360 516q0 -195 5.5 -293t26 -141t67.5 -43q41 0 61.5 33t28.5 122t8 269v518q0 225 -20 300
t-78 75q-42 0 -62 -30t-28.5 -115t-8.5 -267v-428z" />
    <glyph glyph-name="one" unicode="1" 
d="M616 1419v-1218q0 -57 14 -94t42 -53.5t71 -16.5h58v-37h-686v37h67q77 0 108.5 39.5t31.5 132.5v741q0 91 -8 143.5t-31.5 76.5t-71.5 24q-41 0 -119 -27l-12 35l500 217h36z" />
    <glyph glyph-name="two" unicode="2" 
d="M786 406h39l-61 -406h-735v33l172 211q168 207 233.5 359.5t65.5 285.5q0 88 -25.5 154t-74 102.5t-109.5 36.5q-68 0 -122 -46t-75 -124l-39 12q35 187 136.5 291t248.5 104q154 0 249 -100.5t95 -263.5q0 -119 -40.5 -229t-146.5 -250t-288 -322h283q82 0 123.5 33
t70.5 119z" />
    <glyph glyph-name="three" unicode="3" 
d="M283 705v40q71 17 122.5 54t78 91t26.5 122q0 95 -53.5 158t-134.5 63q-119 0 -205 -156l-37 13q67 171 158.5 250t222.5 79q134 0 214.5 -79t80.5 -210q0 -171 -156 -270q107 -48 165 -146.5t58 -234.5q0 -149 -61.5 -264.5t-175 -177.5t-260.5 -62q-86 0 -150.5 21.5
t-99.5 59.5t-35 87q0 43 26 71t66 28q38 0 68 -23t75.5 -68.5t82 -68.5t81.5 -23q52 0 95.5 27t67.5 74t24 106q0 100 -44 192t-121.5 156.5t-178.5 90.5z" />
    <glyph glyph-name="four" unicode="4" 
d="M748 0h-277v307h-432v211l594 901h115v-901h129v-211h-129v-307zM471 518v524h-4l-338 -524h342z" />
    <glyph glyph-name="five" unicode="5" 
d="M864 1397l-100 -254h-469l-45 -152q145 -10 259.5 -49.5t191.5 -105.5t117 -158.5t40 -204.5q0 -141 -64.5 -255t-179 -178.5t-254.5 -64.5q-79 0 -142.5 22.5t-100.5 61.5t-37 86q0 42 28 72.5t66 30.5q39 0 72.5 -20.5t85 -63.5t87 -62.5t77.5 -19.5q57 0 105.5 28
t76 75.5t27.5 105.5q0 86 -50 181.5t-184.5 168t-367.5 72.5h-21l213 684h569z" />
    <glyph glyph-name="six" unicode="6" 
d="M856 1421v-35q-90 -14 -173.5 -56t-149.5 -110.5t-108.5 -167t-49.5 -216.5q89 51 180 51q69 0 125 -29t94.5 -81t60 -128.5t21.5 -171.5q0 -110 -27 -201t-78 -160t-118 -105t-148 -36q-123 0 -218 74t-148 209.5t-53 308.5q0 208 65 365t176 260t252 160t297 69z
M369 743q-1 -44 -1 -125q0 -158 7.5 -273t25 -182t44 -95.5t65.5 -28.5q43 0 60.5 33.5t17.5 120.5q0 93 -12 239.5t-23 198.5q-17 79 -38.5 111t-57.5 32q-30 0 -88 -31z" />
    <glyph glyph-name="seven" unicode="7" 
d="M864 1397l-393 -1422h-152l322 1168h-162q-121 0 -192 -14.5t-112 -50.5t-66 -107h-41l94 426h702z" />
    <glyph glyph-name="eight" unicode="8" 
d="M616 805q83 -66 135.5 -132t77.5 -138t25 -154q0 -116 -52.5 -209.5t-147 -145t-212.5 -51.5q-103 0 -191 48.5t-138 131.5t-50 185q0 220 261 334q-126 94 -182 186t-56 203q0 106 49 186.5t138.5 125t205.5 44.5q83 0 147.5 -21.5t110.5 -60.5t71.5 -97.5t25.5 -127.5
q0 -48 -13 -91t-38.5 -79.5t-67.5 -71t-99 -65.5zM553 856q57 83 57 252q0 121 -35.5 184.5t-101.5 63.5q-59 0 -98 -52t-39 -128q0 -51 21.5 -101.5t69 -103.5t126.5 -115zM375 629q-78 -83 -78 -295q0 -146 40.5 -218.5t121.5 -72.5q66 0 102.5 55.5t36.5 153.5
q0 111 -56 204.5t-167 172.5z" />
    <glyph glyph-name="nine" unicode="9" 
d="M66 -25v35q137 25 244.5 100.5t168.5 192.5t68 258q-85 -51 -180 -51q-90 0 -158.5 50t-105.5 143.5t-37 216.5q0 144 47 258t132 177.5t191 63.5q124 0 219.5 -73t148 -208.5t52.5 -308.5q0 -212 -67.5 -372t-180 -261t-250.5 -153.5t-292 -67.5zM553 653q1 46 1 130
q0 154 -7 265.5t-22 177t-42 98t-69 32.5q-45 0 -62.5 -33.5t-17.5 -120.5q0 -69 5 -162.5t16 -178t26 -140.5t37 -78q20 -20 49 -20q28 0 86 30z" />
    <glyph glyph-name="colon" unicode=":" horiz-adv-x="512" 
d="M258 969q64 0 107 -43t43 -107t-43.5 -107.5t-106.5 -43.5q-42 0 -76 19.5t-55 54t-21 77.5q0 64 44 107t108 43zM258 276q64 0 107 -43t43 -106q0 -64 -43 -108t-107 -44q-43 0 -77 20.5t-54.5 54.5t-20.5 77q0 63 44 106t108 43z" />
    <glyph glyph-name="semicolon" unicode=";" horiz-adv-x="512" 
d="M115 -369v45q59 30 102.5 74.5t70.5 100.5t27 106q0 19 -6 30t-16 11q-1 0 -31 -10q-26 -13 -47 -13q-56 0 -91.5 40.5t-35.5 101.5q0 68 42 112.5t108 44.5q85 0 136.5 -65t51.5 -170q0 -135 -83 -244.5t-228 -163.5zM258 969q64 0 107 -43t43 -107t-43.5 -107.5
t-106.5 -43.5q-42 0 -76 19.5t-55 54t-21 77.5q0 64 44 107t108 43z" />
    <glyph glyph-name="less" unicode="&#x3c;" horiz-adv-x="1366" 
d="M1233 150l-1102 460v168l1102 461v-199l-850 -346l850 -346v-198z" />
    <glyph glyph-name="equal" unicode="=" horiz-adv-x="1366" 
d="M131 1026h1104v-180h-1104v180zM131 547h1104v-180h-1104v180z" />
    <glyph glyph-name="greater" unicode="&#x3e;" horiz-adv-x="1366" 
d="M133 150v198l852 346l-852 346v199l1102 -461v-168z" />
    <glyph glyph-name="question" unicode="?" horiz-adv-x="705" 
d="M319 455h-40q-5 33 -5 59q0 103 37 203l39 104q41 110 41 240q0 133 -40.5 216t-104.5 83q-21 0 -38.5 -15t-17.5 -34q0 -21 25 -66l27 -45q26 -45 26 -94q0 -54 -30 -88.5t-76 -34.5q-57 0 -91 42.5t-34 115.5q0 131 76 210t204 79q102 0 180.5 -41.5t121.5 -117
t43 -173.5q0 -97 -38.5 -169.5t-134.5 -154.5q-70 -58 -102 -96.5t-45.5 -81t-19.5 -119.5zM158 125q0 42 20 76.5t54.5 54.5t76.5 20q41 0 74.5 -19.5t54.5 -54t21 -77.5q0 -60 -44 -105t-106 -45q-63 0 -107 45t-44 105z" />
    <glyph glyph-name="at" unicode="@" horiz-adv-x="1905" 
d="M1182 969l243 10l-184 -629q-12 -41 -20.5 -84.5t-8.5 -66.5q0 -32 24 -56t58 -24q75 0 179 79t177.5 220.5t73.5 316.5q0 182 -81 325t-226.5 222.5t-333.5 79.5q-201 0 -364.5 -73t-281 -203.5t-178 -296.5t-60.5 -349q0 -171 56.5 -313.5t161.5 -248.5t251 -164
t313 -58q120 0 245.5 34.5t239.5 104t201.5 175.5t132.5 239h62q-57 -142 -145.5 -257.5t-203 -194t-249 -117.5t-285.5 -39q-189 0 -351.5 64.5t-283.5 184t-185.5 279t-64.5 348.5q0 203 72 379.5t202.5 305t308.5 198.5t384 70q159 0 291 -47.5t229.5 -138.5t148 -214.5
t50.5 -275.5q0 -196 -79 -359.5t-217 -257.5t-304 -94q-95 0 -149 48t-54 130q0 60 24 133l-4 4q-101 -179 -182 -247t-160 -68q-76 0 -121 61t-45 164q0 145 53.5 281.5t134.5 237t170.5 160t156.5 59.5q62 0 96.5 -38t44.5 -118h4zM1030 930q-52 0 -120 -113.5
t-116.5 -263.5t-48.5 -231q0 -42 17 -68.5t43 -26.5q18 0 48 21.5t58 56.5q54 66 98.5 153.5t68.5 177.5t24 161q0 64 -20.5 98.5t-51.5 34.5z" />
    <glyph glyph-name="A" unicode="A" horiz-adv-x="1110" 
d="M1077 37v-37h-491v37q57 0 79.5 13t22.5 42q0 34 -18 101l-41 139h-348l-41 -139q-21 -69 -21 -89q0 -67 103 -67v-37h-289v37q37 6 59 24t42.5 64.5t47.5 134.5l367 1170h37l354 -1184q36 -122 63 -162.5t74 -46.5zM606 408l-145 485h-4l-152 -485h301z" />
    <glyph glyph-name="B" unicode="B" horiz-adv-x="1110" 
d="M33 1397h454q160 0 263 -31t160 -82.5t79.5 -109t22.5 -119.5q0 -275 -383 -318v-4q219 -16 329.5 -105.5t110.5 -248.5q0 -69 -27 -136.5t-84 -122t-152 -87.5t-222 -33h-551v37q75 0 103 32.5t28 118.5v1029q0 83 -29.5 113t-101.5 30v37zM446 764h41q78 0 129 29
t76 89.5t25 157.5q0 152 -57.5 216.5t-190.5 64.5h-23v-557zM446 688v-475q0 -83 19.5 -110t75.5 -27q103 0 158 75.5t55 217.5q0 319 -273 319h-35z" />
    <glyph glyph-name="C" unicode="C" horiz-adv-x="1110" 
d="M1063 961h-37q-13 109 -60 196t-117 135.5t-149 48.5q-103 0 -182 -79q-49 -50 -81.5 -129t-48 -188.5t-15.5 -246.5q0 -223 33.5 -357t105.5 -206q76 -76 178 -76q75 0 133 27t113 78.5t127 140.5v-104q-48 -71 -116 -124t-148 -80.5t-168 -27.5q-165 0 -297 89
t-204.5 249t-72.5 363q0 158 43.5 297.5t124.5 245t186 161.5t228 56q80 0 133 -18.5t112 -48.5t87 -30q22 0 34 21.5t21 75.5h37v-469z" />
    <glyph glyph-name="D" unicode="D" horiz-adv-x="1217" 
d="M39 1397h532q150 0 263.5 -56t183.5 -151.5t104.5 -222t34.5 -267.5q0 -186 -57.5 -343.5t-197 -257t-367.5 -99.5h-496v37q72 0 102.5 33.5t30.5 107.5v1043q0 73 -27 106t-106 33v37zM455 1321v-1110q0 -56 7.5 -84.5t27 -39.5t55.5 -11q111 0 180 67q63 64 90 221.5
t27 329.5q0 198 -32.5 345.5t-100.5 215.5q-23 24 -76.5 45t-122.5 21h-55z" />
    <glyph glyph-name="E" unicode="E" horiz-adv-x="1110" 
d="M1032 430h37l-68 -430h-974v37q7 0 11 -0.5t8 -0.5q69 0 97.5 34t28.5 108v1039q0 79 -28 111t-117 32v37h944v-400h-37q-16 142 -92.5 233t-280.5 91h-106v-573q78 3 131 37t80.5 104.5t27.5 179.5h37v-711h-37q0 311 -239 314v-430q0 -73 9 -107t34 -46.5t77 -12.5
q130 0 215.5 34.5t141.5 111.5t100 208z" />
    <glyph glyph-name="F" unicode="F" horiz-adv-x="1004" 
d="M961 1014h-37q-19 172 -100.5 239.5t-260.5 67.5h-117v-578q145 6 209 74t64 219h39v-680h-39q0 309 -273 312v-484q0 -81 27.5 -114t104.5 -33v-37h-539v37q71 1 98 32.5t27 112.5v1045q0 68 -29 100.5t-96 32.5v37h922v-383z" />
    <glyph glyph-name="G" unicode="G" horiz-adv-x="1217" 
d="M1030 1430h37v-476h-37q-25 120 -78 212t-125.5 140t-158.5 48q-162 0 -227.5 -176.5t-65.5 -540.5q0 -210 31 -342.5t93 -191t156 -58.5q88 0 127 41v334q0 71 -31 103t-112 32v37h543v-37q-50 -2 -74 -20t-33.5 -65t-9.5 -146v-238q-57 -36 -126.5 -61.5t-145.5 -40.5
t-150 -15q-140 0 -273.5 63t-222 216t-88.5 405q0 229 81.5 406.5t217 274t289.5 96.5q78 0 132.5 -19t108 -47.5t73.5 -28.5q56 0 69 95z" />
    <glyph glyph-name="H" unicode="H" horiz-adv-x="1323" 
d="M174 1227q0 67 -29 100t-104 33v37h549v-37q-73 0 -103 -30.5t-30 -100.5v-465h411v455q0 75 -26 108t-107 33v37h547v-37q-70 0 -100.5 -30t-30.5 -103v-1043q0 -78 26.5 -112.5t104.5 -34.5v-37h-547v37q78 0 105.5 35t27.5 112v492h-411v-498q0 -80 30.5 -110.5
t102.5 -30.5v-37h-549v37q73 0 103 30.5t30 102.5v1057z" />
    <glyph glyph-name="I" unicode="I" horiz-adv-x="598" 
d="M33 1397h532v-37q-65 0 -96 -31.5t-31 -99.5v-1051q0 -51 11.5 -81t40 -45t75.5 -15v-37h-532v37q66 0 94.5 33t28.5 106v1045q0 66 -24.5 102.5t-98.5 36.5v37z" />
    <glyph glyph-name="J" unicode="J" 
d="M330 1397h549v-37q-61 -3 -89 -32t-28 -103v-885q0 -128 -55.5 -211t-141 -121.5t-180.5 -38.5q-145 0 -244.5 82.5t-99.5 204.5q0 70 38 114t97 44q54 0 89.5 -39.5t35.5 -100.5q0 -49 -28.5 -94t-28.5 -65q0 -29 34.5 -49.5t81.5 -20.5q48 0 73.5 22t35.5 75t10 149
v940q0 69 -28.5 99.5t-100.5 30.5q-6 0 -10.5 -0.5t-9.5 -0.5v37z" />
    <glyph glyph-name="K" unicode="K" horiz-adv-x="1217" 
d="M686 905l401 -801q33 -67 111 -67v-37h-512v37q94 0 94 51q0 38 -43 121l-229 453l-41 -58v-428q0 -71 27.5 -105t97.5 -34v-37h-529v37q65 0 93 28.5t28 98.5v1067q0 65 -25 97t-96 32v37h543v-37q-75 0 -107 -31t-32 -98v-531h4l301 424q44 61 58 92t14 62
q0 42 -31.5 61.5t-99.5 20.5v37h436v-37q-78 -9 -144 -59.5t-151 -165.5z" />
    <glyph glyph-name="L" unicode="L" horiz-adv-x="1110" 
d="M1032 479h37l-51 -479h-985v37q95 0 126 31t31 114v1043q0 70 -27.5 103t-104.5 33q-16 0 -25 -1v37h610v-37q-6 0 -12 0.5t-15 0.5q-83 0 -113 -30t-30 -106v-1026q0 -72 23.5 -97.5t83.5 -25.5q132 0 212.5 30.5t136.5 116.5t103 256z" />
    <glyph glyph-name="M" unicode="M" horiz-adv-x="1516" 
d="M43 1397h428l293 -897h4l299 897h420v-37q-43 -3 -67.5 -18t-36 -48.5t-11.5 -83.5v-1020q0 -76 23.5 -113t91.5 -40v-37h-535v37q82 0 110 31t28 112v1057h-5l-409 -1237h-31l-401 1227h-4v-1049q0 -77 27.5 -109t99.5 -32v-37h-324v37q66 1 93.5 31.5t27.5 99.5v1053
q0 71 -25.5 104.5t-95.5 34.5v37z" />
    <glyph glyph-name="N" unicode="N" horiz-adv-x="1217" 
d="M1059 -18h-37l-766 1116h-4v-918q0 -75 30.5 -109t106.5 -34v-37h-352v37q79 0 109 30.5t30 104.5v1042l-86 115q-21 31 -53 31v37h336l602 -877h4v703q0 73 -28 105t-101 32v37h330v-37q-65 0 -93 -27t-28 -100v-1251z" />
    <glyph glyph-name="O" unicode="O" horiz-adv-x="1323" 
d="M1260 694q0 -261 -93.5 -424t-230.5 -232t-272 -69q-102 0 -206.5 37t-194 119.5t-145 224.5t-55.5 344q0 272 95.5 437t232 232t268.5 67q147 0 285 -74t227 -239.5t89 -422.5zM944 713q0 161 -12.5 275.5t-43.5 196.5t-85 125.5t-141 43.5q-107 0 -169.5 -74t-88 -216
t-25.5 -355q0 -151 11 -266.5t40 -205t85.5 -141t146.5 -51.5q114 0 176 81t84 226.5t22 360.5z" />
    <glyph glyph-name="P" unicode="P" horiz-adv-x="1110" 
d="M449 635v-463q0 -48 11.5 -77.5t40 -44t78.5 -14.5q6 0 10 0.5t11 0.5v-37h-565v37q76 0 103.5 34t27.5 107v1043q0 69 -28.5 104t-102.5 35v37h475q210 0 305.5 -26.5t153.5 -84.5q47 -46 78.5 -118t31.5 -144q0 -67 -24 -133.5t-82 -126t-155 -94.5t-236 -35h-133z
M449 1321v-610h86q83 0 134 35t73 105t22 171q0 157 -57.5 228t-186.5 71h-71z" />
    <glyph glyph-name="Q" unicode="Q" horiz-adv-x="1323" 
d="M1217 -281v-59q-73 -41 -199 -41q-90 0 -167.5 24t-143 72.5t-113 115.5t-80.5 157q-149 43 -250.5 138.5t-151 239t-49.5 330.5q0 199 55.5 344.5t144 229t191.5 122t205 38.5q91 0 192.5 -33t195.5 -114.5t153.5 -227t59.5 -363.5q0 -190 -51.5 -331t-148.5 -231
t-235 -138q15 -80 62 -145.5t115 -102.5t145 -37q40 0 70 12zM944 713q0 210 -24 350t-87 215.5t-174 75.5q-76 0 -130.5 -40.5t-87 -121t-47.5 -202.5t-15 -281q0 -165 12 -281t43.5 -204t87.5 -133.5t140 -45.5q109 0 171.5 78t86.5 223.5t24 366.5z" />
    <glyph glyph-name="R" unicode="R" horiz-adv-x="1217" 
d="M1204 37v-37h-356l-318 651h-51v-475q0 -57 13.5 -87t43.5 -41t82 -11v-37h-555v37q76 0 105 32.5t29 104.5v1047q0 73 -29 106t-105 33v37h549q162 0 265.5 -51t148.5 -137t45 -193q0 -135 -66.5 -226t-185.5 -124l230 -476q31 -63 53 -96t45 -45t57 -12zM479 1321v-608
h49q130 0 189 72t59 243q0 162 -60 227.5t-212 65.5h-25z" />
    <glyph glyph-name="S" unicode="S" 
d="M813 975h-37q-30 171 -123 275t-217 104q-55 0 -103 -27t-75 -74t-27 -104q0 -83 64 -145q30 -30 101.5 -73l132.5 -77t118.5 -71t95.5 -76q127 -128 127 -318q0 -118 -51 -214.5t-141.5 -151t-200.5 -54.5q-63 0 -110.5 14t-117.5 41t-91 27q-56 0 -74 -82h-35v518h37
q18 -130 71 -230t132 -156t170 -56q90 0 149.5 66.5t59.5 167.5q0 58 -15.5 94.5t-54.5 75.5q-37 37 -125.5 90.5l-171.5 104.5t-127 95q-68 68 -97.5 140t-29.5 161q0 172 99.5 281t254.5 109q64 0 108.5 -15.5t105 -44.5t81.5 -29q29 0 45 20.5t23 68.5h37z" />
    <glyph glyph-name="T" unicode="T" horiz-adv-x="1110" 
d="M86 1028h-37v369h1012v-369h-37q-12 111 -45.5 175t-100 91t-182.5 27v-1141q0 -78 27.5 -111t105.5 -33q5 0 9.5 0.5t11.5 0.5v-37h-590v37q9 -1 25 -1q72 0 100.5 33t28.5 105v1147q-114 0 -179.5 -22.5t-101 -85t-47.5 -185.5z" />
    <glyph glyph-name="U" unicode="U" horiz-adv-x="1217" 
d="M37 1397h516l2 -37q-63 -2 -91 -32.5t-28 -100.5v-871q0 -161 66 -227t188 -66q145 0 225 80q34 34 51 106t17 161v741q0 127 -22 167.5t-91 41.5v37h310v-37q-69 -1 -95 -34.5t-26 -106.5v-846q0 -404 -451 -404q-180 0 -317 84t-137 299v869q0 69 -25 102t-92 37v37z
" />
    <glyph glyph-name="V" unicode="V" horiz-adv-x="1110" 
d="M559 -39h-37l-368 1251q-22 79 -48 109t-73 39v37h489v-37q-58 0 -80 -13t-22 -44q0 -29 20 -97l207 -706h4l199 639q15 45 25 90t10 71q0 33 -22.5 46.5t-74.5 13.5v37h287v-37q-31 -5 -52 -18.5t-40 -49.5t-41 -104z" />
    <glyph glyph-name="W" unicode="W" horiz-adv-x="1622" 
d="M1124 -31h-39l-239 840h-4l-289 -840h-35l-381 1276q-21 72 -37.5 92.5t-50.5 22.5v37h469v-37q-54 -8 -77 -22t-23 -42q0 -29 20 -92l213 -723h4l152 453l-57 209q-31 116 -67 160.5t-101 56.5v37h514v-37q-52 -7 -74.5 -21.5t-22.5 -44.5q0 -21 23 -102l186 -653h4
l179 630q22 77 22 113q0 37 -19 53t-79 25v37h280v-37q-41 -7 -63.5 -29.5t-42.5 -89.5z" />
    <glyph glyph-name="X" unicode="X" horiz-adv-x="1110" 
d="M446 621l-256 546q-44 93 -62.5 126t-37 46t-55.5 21v37h489v-37q-88 0 -88 -53q0 -22 27 -80l147 -309l144 260q39 71 39 106q0 38 -27 57t-94 19v37h368v-37q-40 -3 -72.5 -23t-66 -65.5t-84.5 -138.5l-166 -299l310 -662q40 -84 60.5 -108t53.5 -27v-37h-481v37
q90 0 90 49q0 32 -43 123l-156 328l-157 -283q-56 -103 -56 -143q0 -39 33.5 -56.5t106.5 -17.5v-37h-377v37q42 2 68.5 17.5t54 56t86.5 143.5z" />
    <glyph glyph-name="Y" unicode="Y" horiz-adv-x="1110" 
d="M1073 1397v-37q-28 -6 -43.5 -20.5t-33.5 -55t-56 -141.5l-213 -572v-354q0 -106 25 -143.5t116 -37.5q21 0 33 1v-37h-635v37q14 -1 39 -1q80 0 109.5 30t29.5 108v340l-249 635q-36 91 -57.5 135.5t-40 56.5t-62.5 19v37h516v-37q-8 1 -22 1q-46 0 -69.5 -15.5
t-23.5 -40.5q0 -19 21 -68l223 -580l188 506q35 93 35 133q0 61 -104 64v37h274z" />
    <glyph glyph-name="Z" unicode="Z" horiz-adv-x="1110" 
d="M1028 492h39l-47 -492h-979l661 1321h-200q-113 0 -175.5 -23.5t-98.5 -92.5t-60 -206h-37l31 398h885l-666 -1321h190q114 0 193.5 22.5t130.5 70t84 129t49 194.5z" />
    <glyph glyph-name="bracketleft" unicode="[" horiz-adv-x="512" 
d="M473 -332v-37h-356v1766h356v-37q-65 0 -91 -9t-33 -30t-7 -68v-1478q0 -48 9.5 -70t35 -29.5t86.5 -7.5z" />
    <glyph glyph-name="backslash" unicode="\" horiz-adv-x="575" 
d="M199 1397l376 -1428h-196l-379 1428h199z" />
    <glyph glyph-name="bracketright" unicode="]" horiz-adv-x="512" 
d="M39 1360v37h356v-1766h-356v37q65 0 91 9t33 30t7 68v1478q0 70 -23.5 88.5t-107.5 18.5z" />
    <glyph glyph-name="asciicircum" unicode="^" horiz-adv-x="1190" 
d="M326 680h-174l411 717h68l409 -717h-174l-270 479z" />
    <glyph glyph-name="underscore" unicode="_" horiz-adv-x="1024" 
d="M-12 -154h1048v-102h-1048v102z" />
    <glyph glyph-name="grave" unicode="`" horiz-adv-x="682" 
d="M508 1083h-78l-299 347h275z" />
    <glyph glyph-name="a" unicode="a" 
d="M520 760v22q0 47 -22 78q-29 41 -103 41q-54 0 -91.5 -27t-37.5 -65q0 -20 8 -34t24 -32t24 -33t8 -38q0 -47 -33.5 -75t-89.5 -28q-58 0 -96.5 34.5t-38.5 86.5q0 74 54.5 139t145.5 102.5t197 37.5q301 0 301 -264v-517q0 -45 9.5 -65.5t29.5 -20.5q24 0 47 48l27 -27
q-76 -148 -203 -148q-64 0 -106 39t-54 109q-85 -78 -150.5 -113t-123.5 -35q-79 0 -132 58t-53 143q0 59 30 114.5t99 111.5t197 120l133 66v172zM520 520q-116 -70 -161.5 -130.5t-45.5 -129.5q0 -48 27.5 -80.5t67.5 -32.5q49 0 112 54v319z" />
    <glyph glyph-name="b" unicode="b" 
d="M139 -25h-30v1260q0 57 -4.5 82t-17 33t-46.5 10v37h317v-531q103 103 215 103q68 0 124.5 -34t98.5 -97t64.5 -148t22.5 -184q0 -151 -58.5 -274t-151 -190t-190.5 -67q-34 0 -73 13t-73 38t-58 58zM358 764v-395q0 -181 25.5 -253.5t87.5 -72.5q70 0 105.5 109.5
t35.5 328.5q0 133 -13 214t-41 120t-73 39q-58 0 -127 -90z" />
    <glyph glyph-name="c" unicode="c" horiz-adv-x="811" 
d="M745 236l31 -23q-61 -115 -148.5 -176.5t-191.5 -61.5q-80 0 -150 36t-122.5 100.5t-81.5 152t-29 189.5q0 141 54 261t148 187.5t206 67.5q81 0 147 -33.5t104 -90.5t38 -124q0 -52 -31.5 -83.5t-83.5 -31.5q-63 0 -92 39t-37 135q-6 63 -24 88t-58 25
q-58 0 -93.5 -77.5t-35.5 -203.5t36.5 -239t98 -178.5t133.5 -65.5q102 0 182 107z" />
    <glyph glyph-name="d" unicode="d" 
d="M881 88v-33l-299 -80h-39v138h-4q-58 -138 -191 -138q-67 0 -123 35.5t-94.5 99t-60 155.5t-21.5 200q0 145 40 259.5t111 179.5t160 65q52 0 95 -24t84 -79h4v396q0 59 -16 79t-63 20q-6 0 -10.5 -0.5t-9.5 -0.5v37h349v-1196q0 -49 6 -72t24 -32t58 -9zM543 223v553
q-64 94 -121 94q-34 0 -57.5 -42.5t-34.5 -131.5t-11 -215q0 -184 26.5 -281.5t90.5 -97.5q34 0 64.5 33.5t42.5 87.5z" />
    <glyph glyph-name="e" unicode="e" horiz-adv-x="811" 
d="M733 283l33 -19q-37 -136 -126.5 -212.5t-213.5 -76.5q-106 0 -190 62.5t-131.5 173.5t-47.5 252t50 257.5t136.5 182.5t192.5 66q79 0 141 -34.5t105 -98t64.5 -146.5t21.5 -184h-449q5 -177 66.5 -279t161.5 -102q56 0 100.5 37.5t85.5 120.5zM315 573h213q1 23 1 67
q0 133 -23 197t-76 64q-115 0 -115 -287v-41z" />
    <glyph glyph-name="f" unicode="f" horiz-adv-x="598" 
d="M530 944v-88h-124v-690q0 -84 13.5 -107t68.5 -23q26 0 42 1v-37h-495v37h29q43 0 61.5 7t24.5 27.5t6 69.5v715h-121v88h121v143q0 113 51.5 188.5t132.5 110.5t168 35q101 0 162 -40t61 -107q0 -47 -32 -77t-81 -30q-46 0 -78 27t-32 68q0 5 4 27t4 36q0 18 -14 30.5
t-33 12.5q-63 0 -63 -111v-313h124z" />
    <glyph glyph-name="g" unicode="g" 
d="M881 930v-105h-152q72 -90 72 -196q0 -63 -33 -141.5t-114.5 -137.5t-217.5 -59q-12 0 -35 2t-32 2q-44 0 -73.5 -30.5t-29.5 -74.5q0 -80 121 -84l127 -4q117 -4 192.5 -18.5t125 -65t49.5 -147.5q0 -90 -51 -158t-145 -104.5t-220 -36.5q-177 0 -288 50.5t-111 131.5
q0 58 46.5 95.5t129.5 44.5v4q-138 49 -138 172q0 51 22 96.5t65 83.5t104 65q-70 27 -120.5 72.5t-77.5 106t-27 131.5q0 145 105.5 244.5t264.5 99.5q44 0 81.5 -9t78.5 -30h281zM549 623q0 104 -10 165.5t-32.5 87t-64.5 25.5q-60 0 -84 -59.5t-24 -206.5
q0 -160 23.5 -223.5t84.5 -63.5q58 0 82.5 64t24.5 211zM739 -227q0 61 -52 82.5t-204 21.5q-147 0 -202.5 -22t-55.5 -82q0 -63 62.5 -98t175.5 -35q131 0 203.5 35t72.5 98z" />
    <glyph glyph-name="h" unicode="h" 
d="M360 1397v-584h5q112 156 249 156q96 0 153.5 -67t57.5 -204v-538q0 -53 4.5 -78.5t16.5 -34t39 -10.5v-37h-365v37q35 3 45 25t10 98v522q0 82 -15.5 118t-57.5 36q-34 0 -66 -23.5t-76 -83.5v-569q0 -55 4 -79.5t17.5 -33t44.5 -10.5v-37h-385v37q35 2 47.5 9.5
t17.5 32t5 81.5v1069q0 59 -5 84t-18.5 34.5t-46.5 12.5v37h319z" />
    <glyph glyph-name="i" unicode="i" horiz-adv-x="512" 
d="M139 762q0 94 -17.5 119.5t-74.5 25.5v37h342v-784q0 -60 6 -85t22.5 -31.5t55.5 -6.5v-37h-426v37q45 0 62.5 7.5t23.5 33t6 88.5v596zM125 1286q0 57 40 97t97 40t97 -40t40 -97t-40 -97t-97 -40t-97 40t-40 97z" />
    <glyph glyph-name="j" unicode="j" horiz-adv-x="512" 
d="M139 776q0 66 -6.5 91.5t-26 32.5t-65.5 7v37h348v-1014q0 -162 -69 -260t-228 -98q-94 0 -150.5 46.5t-56.5 121.5q0 47 27 76.5t72 29.5q35 0 55 -18t20 -49q0 -16 -7 -41.5t-7 -46.5q0 -51 47 -51q27 0 37 21t10 69v1046zM123 1286q0 57 40 97t97 40t97 -40t40 -97
t-40 -97t-97 -40t-97 40t-40 97z" />
    <glyph glyph-name="k" unicode="k" 
d="M379 1397v-918h4l184 269q56 79 56 110q0 23 -18 36t-54 13v37h301v-37q-62 -11 -121.5 -62.5t-118.5 -142.5l-45 -69l203 -426q47 -99 73.5 -131.5t61.5 -38.5v-37h-377v37q45 0 45 22q0 25 -45 113l-122 252l-27 -37v-227q0 -83 12.5 -103t63.5 -20v-37h-387v37
q41 4 51 23.5t10 99.5v1075q0 81 -10 101t-51 24v37h311z" />
    <glyph glyph-name="l" unicode="l" horiz-adv-x="512" 
d="M389 1397v-1237q0 -60 5.5 -85t23 -31.5t57.5 -6.5v-37h-436v37q7 0 11 -0.5t9 -0.5q48 0 64 20t16 79v1094q0 66 -6.5 91.5t-26.5 32.5t-67 7v37h350z" />
    <glyph glyph-name="m" unicode="m" horiz-adv-x="1323" 
d="M346 944v-123h4q96 148 234 148q137 0 198 -162q64 86 122 124t126 38q213 0 213 -299v-510q0 -73 8 -94t39 -29v-37h-346v37q32 8 40.5 29t8.5 94v487q0 72 -6.5 114t-21.5 58.5t-41 16.5q-30 0 -57.5 -23.5t-71.5 -85.5v-567q0 -80 12 -100t57 -23v-37h-368v37
q23 5 33 14.5t13 35t3 73.5v538q0 73 -15.5 105.5t-56.5 32.5q-32 0 -58.5 -23.5t-68.5 -85.5v-567q0 -56 4.5 -81t19.5 -33.5t46 -8.5v-37h-375v37q36 4 45.5 24t9.5 99v622q0 81 -9.5 101.5t-45.5 23.5v37h305z" />
    <glyph glyph-name="n" unicode="n" 
d="M360 946v-131q74 83 133.5 118.5t122.5 35.5q100 0 154.5 -70.5t54.5 -220.5v-518q0 -76 9.5 -98t46.5 -25v-37h-363v37q39 6 48 25.5t9 97.5v495q0 102 -16 141.5t-55 39.5q-33 0 -65 -23.5t-79 -83.5v-569q0 -52 4 -76.5t15 -34t37 -12.5v-37h-363v37q25 2 37.5 11.5
t16.5 34t4 77.5v618q0 82 -11 106.5t-47 24.5v37h307z" />
    <glyph glyph-name="o" unicode="o" 
d="M860 477q0 -151 -48.5 -265.5t-139 -175.5t-213.5 -61q-121 0 -212 62t-140.5 174.5t-49.5 265.5q0 108 28.5 198.5t82 156.5t126.5 101.5t161 35.5q122 0 213.5 -60.5t141.5 -173t50 -258.5zM590 455q0 233 -28 339.5t-101 106.5q-48 0 -77.5 -41.5t-42.5 -136.5
t-13 -262q0 -130 11.5 -223.5t42 -144t83.5 -50.5q47 0 74 37t39 124.5t12 250.5z" />
    <glyph glyph-name="p" unicode="p" 
d="M381 944v-110h4q63 135 193 135q88 0 156 -59t104 -168t36 -250q0 -148 -38 -267t-107 -184.5t-158 -65.5q-49 0 -92.5 25.5t-97.5 85.5v-348q0 -45 3.5 -72t13.5 -38t32.5 -15t56.5 -4v-37h-444v37q57 0 72.5 19t15.5 104v1050q0 63 -6 87.5t-23.5 31t-58.5 6.5v37h338z
M381 731v-553q28 -50 61.5 -76t61.5 -26q37 0 59 44.5t31.5 135t9.5 217.5q0 373 -115 373q-58 0 -108 -115z" />
    <glyph glyph-name="q" unicode="q" 
d="M815 969v-1237q0 -56 4 -80.5t17.5 -32.5t48.5 -10v-37h-400v37q40 2 55.5 9.5t20 29t4.5 84.5v344q-88 -101 -205 -101q-92 0 -165 58.5t-112.5 163.5t-39.5 241q0 147 52.5 269t144.5 192t202 70q59 0 104 -22.5t105 -82.5l137 105h27zM565 178v537q0 91 -30 138.5
t-80 47.5q-45 0 -76.5 -46.5t-48.5 -139.5t-17 -221q0 -146 10.5 -231t38.5 -128t80 -43q81 0 123 86z" />
    <glyph glyph-name="r" unicode="r" horiz-adv-x="705" 
d="M371 944v-168h4q33 93 80.5 143t103.5 50q49 0 78 -39.5t29 -104.5q0 -60 -28 -96.5t-75 -36.5q-37 0 -73 36t-58 36q-21 0 -34.5 -24.5t-20 -87.5t-6.5 -191v-295q0 -46 3.5 -73t13.5 -38.5t26.5 -14.5t56.5 -3v-37h-436v37q59 0 72.5 19.5t13.5 103.5v622
q0 86 -13 105.5t-73 19.5v37h336z" />
    <glyph glyph-name="s" unicode="s" horiz-adv-x="705" 
d="M608 969v-320h-35q-16 69 -51.5 125.5t-86 91.5t-107.5 35q-52 0 -84.5 -27t-32.5 -71q0 -35 10 -56.5t39 -52.5q28 -26 74 -53.5l87.5 -51t87 -54t83.5 -68.5q72 -72 72 -191q0 -84 -39 -152.5t-107 -108.5t-151 -40q-50 0 -91.5 11.5t-85.5 30t-53 18.5q-43 0 -43 -60
h-37l-8 336h37q52 -137 128.5 -198.5t147.5 -61.5q51 0 84 33t33 84q0 59 -45 102q-26 26 -92 66l-123.5 74.5t-99.5 76.5q-44 44 -61 88t-17 105q0 123 75 206t185 83q44 0 74.5 -7t58 -18.5t50 -20t38.5 -8.5q33 0 49 54h37z" />
    <glyph glyph-name="t" unicode="t" horiz-adv-x="598" 
d="M571 944v-100h-182v-627q0 -69 11 -97t44 -28q51 0 101 96l26 -28q-35 -86 -97 -135.5t-134 -49.5q-201 0 -201 283v586h-102v37q94 72 184.5 189t134.5 218h33v-344h182z" />
    <glyph glyph-name="u" unicode="u" 
d="M811 944v-784q0 -55 4.5 -79.5t18 -33t45.5 -10.5v-37h-318v121h-4q-59 -77 -116.5 -111.5t-123.5 -34.5q-98 0 -160.5 72.5t-62.5 220.5v514q0 79 -8.5 98.5t-46.5 26.5v37h305v-651q0 -102 17.5 -143t58.5 -41q35 0 76.5 32t64.5 76v559q0 65 -6 91t-25.5 33t-68.5 7
v37h350z" />
    <glyph glyph-name="v" unicode="v" horiz-adv-x="811" 
d="M774 944v-37q-26 -2 -40.5 -17.5t-29.5 -57.5t-61 -189l-213 -692h-45l-238 776q-36 118 -53.5 147t-58.5 33v37h407v-37q-73 -9 -73 -63q0 -28 20 -92l111 -357h4l84 281q33 111 33 151q0 66 -74 80v37h227z" />
    <glyph glyph-name="w" unicode="w" horiz-adv-x="1217" 
d="M1182 944v-37q-34 -18 -52 -53.5t-53 -153.5l-219 -749h-49l-195 702h-4l-202 -702h-48l-260 864q-14 50 -27.5 69t-35.5 23v37h389v-37q-46 -7 -65 -18.5t-19 -42.5q0 -27 18 -92l109 -367h4l109 377l-11 39q-15 55 -32.5 77.5t-49.5 26.5v37h400v-37q-42 -3 -61 -18
t-19 -47q0 -23 27 -121l86 -322h4l92 316q22 73 22 114q0 58 -69 78v37h211z" />
    <glyph glyph-name="x" unicode="x" 
d="M547 569l198 -370q39 -71 60 -103t38.5 -45t39.5 -14v-37h-426v37q73 0 73 29q0 18 -24 65l-111 207l-100 -154q-49 -73 -49 -102q0 -45 98 -45v-37h-301v37q50 3 80.5 27.5t87.5 109.5l151 227l-233 437q-20 40 -36 53t-50 16v37h430v-37q-84 0 -84 -26q0 -16 29 -68
l96 -180l100 151q35 52 35 80q0 23 -14.5 33t-56.5 10v37h272v-37q-43 0 -75.5 -23t-65.5 -73z" />
    <glyph glyph-name="y" unicode="y" horiz-adv-x="811" 
d="M776 944v-37q-38 -11 -57.5 -43t-44.5 -127l-230 -891q-38 -149 -89.5 -212.5t-139.5 -63.5q-73 0 -119.5 43.5t-46.5 110.5q0 55 31.5 90.5t81.5 35.5q43 0 70.5 -28.5t27.5 -69.5q0 -11 -0.5 -19t-1.5 -18q0 -43 29 -43q45 0 88 158l26 96l-295 887q-17 53 -30.5 70
t-42.5 24v37h401v-37q-80 -3 -80 -49q0 -16 29 -104l125 -389h4l90 354q21 86 21 119q0 55 -70 69v37h223z" />
    <glyph glyph-name="z" unicode="z" horiz-adv-x="811" 
d="M735 319h37l-37 -319h-698v37l448 844h-133q-93 0 -145 -41t-72 -170h-35v274h672v-37l-442 -846h51q105 0 175 25.5t112.5 82.5t66.5 150z" />
    <glyph glyph-name="braceleft" unicode="{" horiz-adv-x="807" 
d="M162 504v57q101 14 148.5 71.5t47.5 143.5q0 46 -7 87t-17.5 83.5t-19.5 86t-9 77.5q0 54 26 109.5t79 104.5t131 77.5t176 28.5v-46q-63 -7 -107 -37t-66 -69.5t-22 -79.5q0 -33 7 -74.5t16.5 -87.5t16.5 -91t7 -87q0 -44 -18 -93t-55.5 -95t-100.5 -82t-151 -53v-5
q84 -15 149 -52t102 -81.5t55.5 -95t18.5 -94.5q0 -69 -23.5 -182.5t-23.5 -157.5q0 -61 51.5 -118t143.5 -68v-46q-98 0 -175.5 29.5t-131 78t-79.5 104t-26 108.5q0 34 9.5 80.5t19.5 88t17 81.5t7 84q0 86 -48 144t-148 71z" />
    <glyph glyph-name="bar" unicode="|" horiz-adv-x="449" 
d="M131 1536h186v-2048h-186v2048z" />
    <glyph glyph-name="braceright" unicode="}" horiz-adv-x="807" 
d="M645 561v-57q-99 -13 -147.5 -71t-48.5 -144q0 -44 5 -73t20 -94t21.5 -99t6.5 -68q0 -74 -48 -148t-141.5 -123t-222.5 -49v46q92 11 143.5 67t51.5 119q0 33 -5.5 66t-15.5 81.5t-18 100.5t-8 92q0 60 33 126.5t106 120.5t186 76v5q-113 22 -186 76t-106 120.5
t-33 126.5q0 42 8.5 95t18 99.5t15 79.5t5.5 66q0 40 -22 79.5t-66 69.5t-107 37v46q129 0 222.5 -49t141.5 -123t48 -148q0 -34 -5.5 -63.5t-21 -94t-21 -97.5t-5.5 -79q0 -58 20.5 -102t64.5 -74t111 -39z" />
    <glyph glyph-name="asciitilde" unicode="~" horiz-adv-x="1366" 
d="M1167 874h70q-6 -165 -84 -264q-76 -94 -207 -94q-64 0 -129 21t-178 67q-113 48 -168.5 68t-103.5 20q-72 0 -114 -43t-56 -133h-68q3 184 85.5 271t195.5 87q71 0 150 -23.5t173 -64.5l99.5 -41.5t93 -34t73.5 -12.5q71 0 115.5 46.5t52.5 129.5z" />
    <glyph glyph-name="Adieresis" unicode="&#xc4;" horiz-adv-x="1110" 
d="M1077 37v-37h-491v37q57 0 79.5 13t22.5 42q0 34 -18 101l-41 139h-348l-41 -139q-21 -69 -21 -89q0 -67 103 -67v-37h-289v37q37 6 59 24t42.5 64.5t47.5 134.5l367 1170h37l354 -1184q36 -122 63 -162.5t74 -46.5zM606 408l-145 485h-4l-152 -485h301zM387 1812
q51 0 86 -35t35 -86q0 -50 -35 -85t-86 -35t-86 35t-35 85q0 51 35 86t86 35zM725 1812q51 0 86 -35t35 -86q0 -50 -35 -85t-86 -35t-86 35t-35 85q0 51 35 86t86 35z" />
    <glyph glyph-name="Aring" unicode="&#xc5;" horiz-adv-x="1110" 
d="M1077 37v-37h-491v37q57 0 79.5 13t22.5 42q0 34 -18 101l-41 139h-348l-41 -139q-21 -69 -21 -89q0 -67 103 -67v-37h-289v37q37 6 59 24t42.5 64.5t47.5 134.5l367 1170h37l354 -1184q36 -122 63 -162.5t74 -46.5zM606 408l-145 485h-4l-152 -485h301zM557 1880
q52 0 94 -25t67 -68t25 -94t-24.5 -94t-67 -68.5t-94.5 -25.5q-78 0 -133 55t-55 133t54.5 132.5t133.5 54.5zM555 1812q-51 0 -85 -34t-34 -85q0 -49 34.5 -84.5t84.5 -35.5q49 0 85 36t36 84q0 50 -35.5 84.5t-85.5 34.5z" />
    <glyph glyph-name="Ccedilla" unicode="&#xc7;" horiz-adv-x="1110" 
d="M1063 961h-37q-13 109 -60 196t-117 135.5t-149 48.5q-103 0 -182 -79q-49 -50 -81.5 -129t-48 -188.5t-15.5 -246.5q0 -223 33.5 -357t105.5 -206q76 -76 178 -76q75 0 133 27t113 78.5t127 140.5v-104q-48 -71 -116 -124t-148 -80.5t-168 -27.5q-165 0 -297 89
t-204.5 249t-72.5 363q0 158 43.5 297.5t124.5 245t186 161.5t228 56q80 0 133 -18.5t112 -48.5t87 -30q22 0 34 21.5t21 75.5h37v-469zM362 -428v72q97 3 139 26t42 74q0 76 -97 90l150 166h94l-57 -72q60 -21 88.5 -57t28.5 -94q0 -112 -93.5 -158.5t-294.5 -46.5z" />
    <glyph glyph-name="Eacute" unicode="&#xc9;" horiz-adv-x="1110" 
d="M1032 430h37l-68 -430h-974v37q7 0 11 -0.5t8 -0.5q69 0 97.5 34t28.5 108v1039q0 79 -28 111t-117 32v37h944v-400h-37q-16 142 -92.5 233t-280.5 91h-106v-573q78 3 131 37t80.5 104.5t27.5 179.5h37v-711h-37q0 311 -239 314v-430q0 -73 9 -107t34 -46.5t77 -12.5
q130 0 215.5 34.5t141.5 111.5t100 208zM389 1522l102 347h275l-299 -347h-78z" />
    <glyph glyph-name="Ntilde" unicode="&#xd1;" horiz-adv-x="1217" 
d="M1059 -18h-37l-766 1116h-4v-918q0 -75 30.5 -109t106.5 -34v-37h-352v37q79 0 109 30.5t30 104.5v1042l-86 115q-21 31 -53 31v37h336l602 -877h4v703q0 73 -28 105t-101 32v37h330v-37q-65 0 -93 -27t-28 -100v-1251zM835 1829h64q-3 -134 -50 -205.5t-132 -71.5
q-45 0 -78.5 14t-98.5 47t-88 33q-30 0 -45 -22t-24 -72h-64q1 81 23 145t61.5 99t89.5 35q35 0 72.5 -13.5t82 -37.5t70.5 -35t52 -11q28 0 43 21.5t22 73.5z" />
    <glyph glyph-name="Odieresis" unicode="&#xd6;" horiz-adv-x="1323" 
d="M1260 694q0 -261 -93.5 -424t-230.5 -232t-272 -69q-102 0 -206.5 37t-194 119.5t-145 224.5t-55.5 344q0 272 95.5 437t232 232t268.5 67q147 0 285 -74t227 -239.5t89 -422.5zM944 713q0 161 -12.5 275.5t-43.5 196.5t-85 125.5t-141 43.5q-107 0 -169.5 -74t-88 -216
t-25.5 -355q0 -151 11 -266.5t40 -205t85.5 -141t146.5 -51.5q114 0 176 81t84 226.5t22 360.5zM493 1812q51 0 86 -35t35 -86q0 -50 -35 -85t-86 -35t-86 35t-35 85q0 51 35 86t86 35zM831 1812q51 0 86 -35t35 -86q0 -50 -35 -85t-86 -35t-86 35t-35 85q0 51 35 86t86 35z
" />
    <glyph glyph-name="Udieresis" unicode="&#xdc;" horiz-adv-x="1217" 
d="M37 1397h516l2 -37q-63 -2 -91 -32.5t-28 -100.5v-871q0 -161 66 -227t188 -66q145 0 225 80q34 34 51 106t17 161v741q0 127 -22 167.5t-91 41.5v37h310v-37q-69 -1 -95 -34.5t-26 -106.5v-846q0 -404 -451 -404q-180 0 -317 84t-137 299v869q0 69 -25 102t-92 37v37z
M481 1812q51 0 86 -35t35 -86q0 -50 -35 -85t-86 -35t-86 35t-35 85q0 51 35 86t86 35zM819 1812q51 0 86 -35t35 -86q0 -50 -35 -85t-86 -35t-86 35t-35 85q0 51 35 86t86 35z" />
    <glyph glyph-name="aacute" unicode="&#xe1;" 
d="M520 760v22q0 47 -22 78q-29 41 -103 41q-54 0 -91.5 -27t-37.5 -65q0 -20 8 -34t24 -32t24 -33t8 -38q0 -47 -33.5 -75t-89.5 -28q-58 0 -96.5 34.5t-38.5 86.5q0 74 54.5 139t145.5 102.5t197 37.5q301 0 301 -264v-517q0 -45 9.5 -65.5t29.5 -20.5q24 0 47 48l27 -27
q-76 -148 -203 -148q-64 0 -106 39t-54 109q-85 -78 -150.5 -113t-123.5 -35q-79 0 -132 58t-53 143q0 59 30 114.5t99 111.5t197 120l133 66v172zM520 520q-116 -70 -161.5 -130.5t-45.5 -129.5q0 -48 27.5 -80.5t67.5 -32.5q49 0 112 54v319zM334 1098l102 347h275
l-299 -347h-78z" />
    <glyph glyph-name="agrave" unicode="&#xe0;" 
d="M520 760v22q0 47 -22 78q-29 41 -103 41q-54 0 -91.5 -27t-37.5 -65q0 -20 8 -34t24 -32t24 -33t8 -38q0 -47 -33.5 -75t-89.5 -28q-58 0 -96.5 34.5t-38.5 86.5q0 74 54.5 139t145.5 102.5t197 37.5q301 0 301 -264v-517q0 -45 9.5 -65.5t29.5 -20.5q24 0 47 48l27 -27
q-76 -148 -203 -148q-64 0 -106 39t-54 109q-85 -78 -150.5 -113t-123.5 -35q-79 0 -132 58t-53 143q0 59 30 114.5t99 111.5t197 120l133 66v172zM520 520q-116 -70 -161.5 -130.5t-45.5 -129.5q0 -48 27.5 -80.5t67.5 -32.5q49 0 112 54v319zM586 1098h-78l-299 347h275z
" />
    <glyph glyph-name="acircumflex" unicode="&#xe2;" 
d="M520 760v22q0 47 -22 78q-29 41 -103 41q-54 0 -91.5 -27t-37.5 -65q0 -20 8 -34t24 -32t24 -33t8 -38q0 -47 -33.5 -75t-89.5 -28q-58 0 -96.5 34.5t-38.5 86.5q0 74 54.5 139t145.5 102.5t197 37.5q301 0 301 -264v-517q0 -45 9.5 -65.5t29.5 -20.5q24 0 47 48l27 -27
q-76 -148 -203 -148q-64 0 -106 39t-54 109q-85 -78 -150.5 -113t-123.5 -35q-79 0 -132 58t-53 143q0 59 30 114.5t99 111.5t197 120l133 66v172zM520 520q-116 -70 -161.5 -130.5t-45.5 -129.5q0 -48 27.5 -80.5t67.5 -32.5q49 0 112 54v319zM173 1081l189 373h196
l187 -373h-74l-213 193l-209 -193h-76z" />
    <glyph glyph-name="adieresis" unicode="&#xe4;" 
d="M520 760v22q0 47 -22 78q-29 41 -103 41q-54 0 -91.5 -27t-37.5 -65q0 -20 8 -34t24 -32t24 -33t8 -38q0 -47 -33.5 -75t-89.5 -28q-58 0 -96.5 34.5t-38.5 86.5q0 74 54.5 139t145.5 102.5t197 37.5q301 0 301 -264v-517q0 -45 9.5 -65.5t29.5 -20.5q24 0 47 48l27 -27
q-76 -148 -203 -148q-64 0 -106 39t-54 109q-85 -78 -150.5 -113t-123.5 -35q-79 0 -132 58t-53 143q0 59 30 114.5t99 111.5t197 120l133 66v172zM520 520q-116 -70 -161.5 -130.5t-45.5 -129.5q0 -48 27.5 -80.5t67.5 -32.5q49 0 112 54v319zM291 1389q51 0 86 -35t35 -86
q0 -50 -35 -85t-86 -35t-86 35t-35 85q0 51 35 86t86 35zM629 1389q51 0 86 -35t35 -86q0 -50 -35 -85t-86 -35t-86 35t-35 85q0 51 35 86t86 35z" />
    <glyph glyph-name="atilde" unicode="&#xe3;" 
d="M520 760v22q0 47 -22 78q-29 41 -103 41q-54 0 -91.5 -27t-37.5 -65q0 -20 8 -34t24 -32t24 -33t8 -38q0 -47 -33.5 -75t-89.5 -28q-58 0 -96.5 34.5t-38.5 86.5q0 74 54.5 139t145.5 102.5t197 37.5q301 0 301 -264v-517q0 -45 9.5 -65.5t29.5 -20.5q24 0 47 48l27 -27
q-76 -148 -203 -148q-64 0 -106 39t-54 109q-85 -78 -150.5 -113t-123.5 -35q-79 0 -132 58t-53 143q0 59 30 114.5t99 111.5t197 120l133 66v172zM520 520q-116 -70 -161.5 -130.5t-45.5 -129.5q0 -48 27.5 -80.5t67.5 -32.5q49 0 112 54v319zM686 1405h64
q-3 -134 -50 -205.5t-132 -71.5q-45 0 -78.5 14t-98.5 47t-88 33q-30 0 -45 -22t-24 -72h-64q1 81 23 145t61.5 99t89.5 35q35 0 72.5 -13.5t82 -37.5t70.5 -35t52 -11q28 0 43 21.5t22 73.5z" />
    <glyph glyph-name="aring" unicode="&#xe5;" 
d="M520 760v22q0 47 -22 78q-29 41 -103 41q-54 0 -91.5 -27t-37.5 -65q0 -20 8 -34t24 -32t24 -33t8 -38q0 -47 -33.5 -75t-89.5 -28q-58 0 -96.5 34.5t-38.5 86.5q0 74 54.5 139t145.5 102.5t197 37.5q301 0 301 -264v-517q0 -45 9.5 -65.5t29.5 -20.5q24 0 47 48l27 -27
q-76 -148 -203 -148q-64 0 -106 39t-54 109q-85 -78 -150.5 -113t-123.5 -35q-79 0 -132 58t-53 143q0 59 30 114.5t99 111.5t197 120l133 66v172zM520 520q-116 -70 -161.5 -130.5t-45.5 -129.5q0 -48 27.5 -80.5t67.5 -32.5q49 0 112 54v319zM460 1456q52 0 94 -25t67 -68
t25 -94t-24.5 -94t-67 -68.5t-94.5 -25.5q-78 0 -133 55t-55 133t54.5 132.5t133.5 54.5zM458 1388q-51 0 -85 -34t-34 -85q0 -49 34.5 -84.5t84.5 -35.5q49 0 85 36t36 84q0 50 -35.5 84.5t-85.5 34.5z" />
    <glyph glyph-name="ccedilla" unicode="&#xe7;" horiz-adv-x="811" 
d="M745 236l31 -23q-61 -115 -148.5 -176.5t-191.5 -61.5q-80 0 -150 36t-122.5 100.5t-81.5 152t-29 189.5q0 141 54 261t148 187.5t206 67.5q81 0 147 -33.5t104 -90.5t38 -124q0 -52 -31.5 -83.5t-83.5 -31.5q-63 0 -92 39t-37 135q-6 63 -24 88t-58 25
q-58 0 -93.5 -77.5t-35.5 -203.5t36.5 -239t98 -178.5t133.5 -65.5q102 0 182 107zM213 -428v72q98 3 139 26t41 74q0 76 -96 90l149 166h95l-58 -72q60 -21 88.5 -57t28.5 -94q0 -77 -42.5 -121.5t-128 -64t-216.5 -19.5z" />
    <glyph glyph-name="eacute" unicode="&#xe9;" horiz-adv-x="811" 
d="M733 283l33 -19q-37 -136 -126.5 -212.5t-213.5 -76.5q-106 0 -190 62.5t-131.5 173.5t-47.5 252t50 257.5t136.5 182.5t192.5 66q79 0 141 -34.5t105 -98t64.5 -146.5t21.5 -184h-449q5 -177 66.5 -279t161.5 -102q56 0 100.5 37.5t85.5 120.5zM315 573h213q1 23 1 67
q0 133 -23 197t-76 64q-115 0 -115 -287v-41zM301 1098l102 347h275l-299 -347h-78z" />
    <glyph glyph-name="egrave" unicode="&#xe8;" horiz-adv-x="811" 
d="M733 283l33 -19q-37 -136 -126.5 -212.5t-213.5 -76.5q-106 0 -190 62.5t-131.5 173.5t-47.5 252t50 257.5t136.5 182.5t192.5 66q79 0 141 -34.5t105 -98t64.5 -146.5t21.5 -184h-449q5 -177 66.5 -279t161.5 -102q56 0 100.5 37.5t85.5 120.5zM315 573h213q1 23 1 67
q0 133 -23 197t-76 64q-115 0 -115 -287v-41zM574 1098h-78l-299 347h275z" />
    <glyph glyph-name="ecircumflex" unicode="&#xea;" horiz-adv-x="811" 
d="M733 283l33 -19q-37 -136 -126.5 -212.5t-213.5 -76.5q-106 0 -190 62.5t-131.5 173.5t-47.5 252t50 257.5t136.5 182.5t192.5 66q79 0 141 -34.5t105 -98t64.5 -146.5t21.5 -184h-449q5 -177 66.5 -279t161.5 -102q56 0 100.5 37.5t85.5 120.5zM315 573h213q1 23 1 67
q0 133 -23 197t-76 64q-115 0 -115 -287v-41zM120 1081l189 373h196l187 -373h-74l-213 193l-209 -193h-76z" />
    <glyph glyph-name="edieresis" unicode="&#xeb;" horiz-adv-x="811" 
d="M733 283l33 -19q-37 -136 -126.5 -212.5t-213.5 -76.5q-106 0 -190 62.5t-131.5 173.5t-47.5 252t50 257.5t136.5 182.5t192.5 66q79 0 141 -34.5t105 -98t64.5 -146.5t21.5 -184h-449q5 -177 66.5 -279t161.5 -102q56 0 100.5 37.5t85.5 120.5zM315 573h213q1 23 1 67
q0 133 -23 197t-76 64q-115 0 -115 -287v-41zM237 1389q51 0 86 -35t35 -86q0 -50 -35 -85t-86 -35t-86 35t-35 85q0 51 35 86t86 35zM575 1389q51 0 86 -35t35 -86q0 -50 -35 -85t-86 -35t-86 35t-35 85q0 51 35 86t86 35z" />
    <glyph glyph-name="iacute" unicode="&#xed;" horiz-adv-x="512" 
d="M139 762q0 94 -17.5 119.5t-74.5 25.5v37h342v-784q0 -60 6 -85t22.5 -31.5t55.5 -6.5v-37h-426v37q45 0 62.5 7.5t23.5 33t6 88.5v596zM152 1098l102 347h275l-299 -347h-78z" />
    <glyph glyph-name="igrave" unicode="&#xec;" horiz-adv-x="512" 
d="M139 762q0 94 -17.5 119.5t-74.5 25.5v37h342v-784q0 -60 6 -85t22.5 -31.5t55.5 -6.5v-37h-426v37q45 0 62.5 7.5t23.5 33t6 88.5v596zM363 1098h-78l-299 347h275z" />
    <glyph glyph-name="icircumflex" unicode="&#xee;" horiz-adv-x="512" 
d="M139 762q0 94 -17.5 119.5t-74.5 25.5v37h342v-784q0 -60 6 -85t22.5 -31.5t55.5 -6.5v-37h-426v37q45 0 62.5 7.5t23.5 33t6 88.5v596zM-29 1081l189 373h196l187 -373h-74l-213 193l-209 -193h-76z" />
    <glyph glyph-name="idieresis" unicode="&#xef;" horiz-adv-x="512" 
d="M139 762q0 94 -17.5 119.5t-74.5 25.5v37h342v-784q0 -60 6 -85t22.5 -31.5t55.5 -6.5v-37h-426v37q45 0 62.5 7.5t23.5 33t6 88.5v596zM88 1389q51 0 86 -35t35 -86q0 -50 -35 -85t-86 -35t-86 35t-35 85q0 51 35 86t86 35zM426 1389q51 0 86 -35t35 -86q0 -50 -35 -85
t-86 -35t-86 35t-35 85q0 51 35 86t86 35z" />
    <glyph glyph-name="ntilde" unicode="&#xf1;" 
d="M360 946v-131q74 83 133.5 118.5t122.5 35.5q100 0 154.5 -70.5t54.5 -220.5v-518q0 -76 9.5 -98t46.5 -25v-37h-363v37q39 6 48 25.5t9 97.5v495q0 102 -16 141.5t-55 39.5q-33 0 -65 -23.5t-79 -83.5v-569q0 -52 4 -76.5t15 -34t37 -12.5v-37h-363v37q25 2 37.5 11.5
t16.5 34t4 77.5v618q0 82 -11 106.5t-47 24.5v37h307zM686 1405h64q-3 -134 -50 -205.5t-132 -71.5q-45 0 -78.5 14t-98.5 47t-88 33q-30 0 -45 -22t-24 -72h-64q1 81 23 145t61.5 99t89.5 35q35 0 72.5 -13.5t82 -37.5t70.5 -35t52 -11q28 0 43 21.5t22 73.5z" />
    <glyph glyph-name="oacute" unicode="&#xf3;" 
d="M860 477q0 -151 -48.5 -265.5t-139 -175.5t-213.5 -61q-121 0 -212 62t-140.5 174.5t-49.5 265.5q0 108 28.5 198.5t82 156.5t126.5 101.5t161 35.5q122 0 213.5 -60.5t141.5 -173t50 -258.5zM590 455q0 233 -28 339.5t-101 106.5q-48 0 -77.5 -41.5t-42.5 -136.5
t-13 -262q0 -130 11.5 -223.5t42 -144t83.5 -50.5q47 0 74 37t39 124.5t12 250.5zM354 1098l102 347h275l-299 -347h-78z" />
    <glyph glyph-name="ograve" unicode="&#xf2;" 
d="M860 477q0 -151 -48.5 -265.5t-139 -175.5t-213.5 -61q-121 0 -212 62t-140.5 174.5t-49.5 265.5q0 108 28.5 198.5t82 156.5t126.5 101.5t161 35.5q122 0 213.5 -60.5t141.5 -173t50 -258.5zM590 455q0 233 -28 339.5t-101 106.5q-48 0 -77.5 -41.5t-42.5 -136.5
t-13 -262q0 -130 11.5 -223.5t42 -144t83.5 -50.5q47 0 74 37t39 124.5t12 250.5zM565 1098h-78l-299 347h275z" />
    <glyph glyph-name="ocircumflex" unicode="&#xf4;" 
d="M860 477q0 -151 -48.5 -265.5t-139 -175.5t-213.5 -61q-121 0 -212 62t-140.5 174.5t-49.5 265.5q0 108 28.5 198.5t82 156.5t126.5 101.5t161 35.5q122 0 213.5 -60.5t141.5 -173t50 -258.5zM590 455q0 233 -28 339.5t-101 106.5q-48 0 -77.5 -41.5t-42.5 -136.5
t-13 -262q0 -130 11.5 -223.5t42 -144t83.5 -50.5q47 0 74 37t39 124.5t12 250.5zM173 1081l189 373h196l187 -373h-74l-213 193l-209 -193h-76z" />
    <glyph glyph-name="odieresis" unicode="&#xf6;" 
d="M860 477q0 -151 -48.5 -265.5t-139 -175.5t-213.5 -61q-121 0 -212 62t-140.5 174.5t-49.5 265.5q0 108 28.5 198.5t82 156.5t126.5 101.5t161 35.5q122 0 213.5 -60.5t141.5 -173t50 -258.5zM590 455q0 233 -28 339.5t-101 106.5q-48 0 -77.5 -41.5t-42.5 -136.5
t-13 -262q0 -130 11.5 -223.5t42 -144t83.5 -50.5q47 0 74 37t39 124.5t12 250.5zM291 1389q51 0 86 -35t35 -86q0 -50 -35 -85t-86 -35t-86 35t-35 85q0 51 35 86t86 35zM629 1389q51 0 86 -35t35 -86q0 -50 -35 -85t-86 -35t-86 35t-35 85q0 51 35 86t86 35z" />
    <glyph glyph-name="otilde" unicode="&#xf5;" 
d="M860 477q0 -151 -48.5 -265.5t-139 -175.5t-213.5 -61q-121 0 -212 62t-140.5 174.5t-49.5 265.5q0 108 28.5 198.5t82 156.5t126.5 101.5t161 35.5q122 0 213.5 -60.5t141.5 -173t50 -258.5zM590 455q0 233 -28 339.5t-101 106.5q-48 0 -77.5 -41.5t-42.5 -136.5
t-13 -262q0 -130 11.5 -223.5t42 -144t83.5 -50.5q47 0 74 37t39 124.5t12 250.5zM686 1405h64q-3 -134 -50 -205.5t-132 -71.5q-45 0 -78.5 14t-98.5 47t-88 33q-30 0 -45 -22t-24 -72h-64q1 81 23 145t61.5 99t89.5 35q35 0 72.5 -13.5t82 -37.5t70.5 -35t52 -11
q28 0 43 21.5t22 73.5z" />
    <glyph glyph-name="uacute" unicode="&#xfa;" 
d="M811 944v-784q0 -55 4.5 -79.5t18 -33t45.5 -10.5v-37h-318v121h-4q-59 -77 -116.5 -111.5t-123.5 -34.5q-98 0 -160.5 72.5t-62.5 220.5v514q0 79 -8.5 98.5t-46.5 26.5v37h305v-651q0 -102 17.5 -143t58.5 -41q35 0 76.5 32t64.5 76v559q0 65 -6 91t-25.5 33t-68.5 7
v37h350zM293 1098l102 347h275l-299 -347h-78z" />
    <glyph glyph-name="ugrave" unicode="&#xf9;" 
d="M811 944v-784q0 -55 4.5 -79.5t18 -33t45.5 -10.5v-37h-318v121h-4q-59 -77 -116.5 -111.5t-123.5 -34.5q-98 0 -160.5 72.5t-62.5 220.5v514q0 79 -8.5 98.5t-46.5 26.5v37h305v-651q0 -102 17.5 -143t58.5 -41q35 0 76.5 32t64.5 76v559q0 65 -6 91t-25.5 33t-68.5 7
v37h350zM565 1098h-78l-299 347h275z" />
    <glyph glyph-name="ucircumflex" unicode="&#xfb;" 
d="M811 944v-784q0 -55 4.5 -79.5t18 -33t45.5 -10.5v-37h-318v121h-4q-59 -77 -116.5 -111.5t-123.5 -34.5q-98 0 -160.5 72.5t-62.5 220.5v514q0 79 -8.5 98.5t-46.5 26.5v37h305v-651q0 -102 17.5 -143t58.5 -41q35 0 76.5 32t64.5 76v559q0 65 -6 91t-25.5 33t-68.5 7
v37h350zM173 1081l189 373h196l187 -373h-74l-213 193l-209 -193h-76z" />
    <glyph glyph-name="udieresis" unicode="&#xfc;" 
d="M811 944v-784q0 -55 4.5 -79.5t18 -33t45.5 -10.5v-37h-318v121h-4q-59 -77 -116.5 -111.5t-123.5 -34.5q-98 0 -160.5 72.5t-62.5 220.5v514q0 79 -8.5 98.5t-46.5 26.5v37h305v-651q0 -102 17.5 -143t58.5 -41q35 0 76.5 32t64.5 76v559q0 65 -6 91t-25.5 33t-68.5 7
v37h350zM250 1389q51 0 86 -35t35 -86q0 -50 -35 -85t-86 -35t-86 35t-35 85q0 51 35 86t86 35zM588 1389q51 0 86 -35t35 -86q0 -50 -35 -85t-86 -35t-86 35t-35 85q0 51 35 86t86 35z" />
    <glyph glyph-name="dagger" unicode="&#x2020;" 
d="M479 -393h-39v65q0 209 -8.5 388.5t-29.5 329t-58 257.5q51 57 73.5 113.5t22.5 128.5q-44 0 -79 -11.5t-62.5 -27l-58.5 -31.5t-60 -16q-41 0 -68.5 31t-27.5 77q0 43 26.5 72t67.5 29q29 0 52 -9t61 -29.5t70 -31t79 -10.5q0 49 -13 95t-36.5 103t-33 91t-9.5 77
q0 59 29.5 95.5t81.5 36.5q49 0 79.5 -36t30.5 -91q0 -50 -11.5 -90t-33.5 -94.5t-33.5 -96t-11.5 -90.5q46 0 79.5 10.5t60.5 25t59 29.5t59 15q44 0 70.5 -28.5t26.5 -72.5q0 -45 -26.5 -76.5t-66.5 -31.5q-27 0 -61 16.5t-62 32t-60.5 26.5t-78.5 11q8 -86 29.5 -142.5
t62.5 -99.5q-43 -119 -67.5 -353t-24.5 -484v-203z" />
    <glyph glyph-name="degree" unicode="&#xb0;" horiz-adv-x="819" 
d="M410 1419q93 0 173 -47t126.5 -126t46.5 -173q0 -93 -46.5 -173t-126.5 -126.5t-173 -46.5q-94 0 -174 46.5t-126.5 126.5t-46.5 173q0 94 46 173t126.5 126t174.5 47zM410 1288q-89 0 -152 -63t-63 -152t63 -152t152 -63t152 63t63 152t-63 152t-152 63z" />
    <glyph glyph-name="cent" unicode="&#xa2;" horiz-adv-x="811" 
d="M637 1141l-59 -191q172 -83 172 -227q0 -54 -31.5 -85.5t-85.5 -31.5q-48 0 -81.5 31t-37.5 96h-4l-139 -454q76 -150 194 -150q100 0 180 107l31 -23q-125 -238 -346 -238q-77 0 -143 35l-62 -198h-73l73 237q-78 58 -125 167.5t-47 234.5q0 149 54 266.5t149.5 184.5
t212.5 67q23 0 39 -4l53 176h76zM330 387l149 483q-22 23 -53 23q-42 0 -72 -40t-44.5 -101.5t-14.5 -126.5q0 -54 11.5 -133.5t23.5 -104.5z" />
    <glyph glyph-name="sterling" unicode="&#xa3;" 
d="M844 348h35q-3 -85 -22.5 -154.5t-55 -118.5t-84.5 -74.5t-107 -25.5q-38 0 -70 9t-70 36t-81 72q-61 -117 -178 -117q-74 0 -122 46t-48 118q0 52 23.5 92.5t64 63t92.5 22.5q51 0 98 -22q1 8 1 24q0 49 -14.5 105t-67.5 231h-191v133h160q-12 87 -12 156q0 144 44 251
t124.5 165.5t185.5 58.5q116 0 194 -75.5t78 -184.5q0 -62 -33.5 -99.5t-89.5 -37.5q-64 0 -98.5 38.5t-34.5 110.5q0 10 2 45t2 46q0 90 -61 90q-74 0 -74 -117q0 -27 5 -69t14 -102.5l20.5 -144.5t15.5 -131h191v-133h-180q4 -30 4 -82q0 -178 -55 -325q95 -37 200 -37
q75 0 121 32t74 105zM311 166q-21 24 -53 38.5t-63 14.5q-38 0 -63.5 -22.5t-25.5 -57.5q0 -33 26 -56.5t63 -23.5q42 0 74.5 30t41.5 77z" />
    <glyph glyph-name="section" unicode="&#xa7;" 
d="M424 1051q30 -30 90 -83.5l110.5 -98.5t73.5 -68q136 -135 136 -309q0 -78 -23.5 -139t-72 -111.5t-126.5 -96.5q87 -79 125.5 -150t38.5 -147q0 -85 -40.5 -147t-115 -95.5t-171.5 -33.5q-89 0 -157 27.5t-105 78.5t-37 119q0 61 31 98t77 37q45 0 73.5 -33.5
t28.5 -86.5q0 -33 -10 -68t-10 -45q0 -24 30.5 -41.5t82.5 -17.5q73 0 115 38t42 103q0 42 -14.5 73t-58.5 74q-17 18 -124 109t-175 158q-85 85 -119.5 157.5t-34.5 161.5q0 223 225 352q-83 67 -124.5 138t-41.5 149q0 85 42 152t117.5 104t172.5 37q66 0 120 -17t93 -48
t60.5 -75t21.5 -98q0 -61 -29 -96t-77 -35q-44 0 -74.5 31.5t-30.5 77.5q0 11 9.5 56.5t9.5 62.5q0 31 -27 48t-76 17q-75 0 -119.5 -36t-44.5 -97q0 -43 25 -83t88 -103zM496 692l-138 125q-122 -73 -122 -196q0 -42 15 -82.5t56 -92t123 -129.5l133 -124q57 29 89 80.5
t32 113.5q0 65 -41.5 137.5t-146.5 167.5z" />
    <glyph glyph-name="bullet" unicode="&#x2022;" horiz-adv-x="717" 
d="M360 961q58 0 111.5 -23t90.5 -60t60 -90.5t23 -111.5q0 -77 -38.5 -143.5t-103.5 -105t-143 -38.5q-77 0 -142.5 39t-104.5 104.5t-39 143.5t38.5 143t105 103.5t142.5 38.5z" />
    <glyph glyph-name="paragraph" unicode="&#xb6;" horiz-adv-x="1106" 
d="M635 1321v-1749h-98v899q-279 0 -409 134t-130 331q0 91 27 172t86.5 147t158 104t236.5 38h600v-43q-78 0 -117 -13t-55 -46t-16 -99v-1624h-99v1749h-184z" />
    <glyph glyph-name="germandbls" unicode="&#xdf;" 
d="M438 809v61q44 5 64.5 14.5t32 34t15 70t3.5 131.5q0 92 -6.5 141.5t-28 75t-65.5 25.5q-97 0 -97 -148v-1122q0 -42 23 -55v-37h-342v37q35 2 47.5 10t17 33t4.5 82v932q0 153 96.5 240t250.5 87q82 0 151 -23t116.5 -64.5t74 -99.5t26.5 -130q0 -187 -213 -246v-4
q139 -34 205 -137t66 -289q0 -246 -92.5 -344t-204.5 -98q-71 0 -114.5 36.5t-43.5 92.5q0 34 18.5 56t46.5 22q27 0 44.5 -16.5t17.5 -41.5q0 -9 -0.5 -18t-1.5 -19q0 -45 39 -45q27 0 44 24t17 62q0 21 -3.5 39.5t-7.5 35l-11 46.5q-21 90 -21 232q1 34 1.5 64t0.5 69
q0 75 -15.5 115t-50.5 54.5t-104 14.5z" />
    <glyph glyph-name="registered" unicode="&#xae;" horiz-adv-x="1530" 
d="M385 1120h440q78 0 142 -27t99.5 -78t35.5 -114q0 -74 -45 -127.5t-133 -79.5l137 -250q29 -51 51 -72.5t53 -27.5v-33h-241l-205 369h-47v-199q0 -57 8.5 -85t35 -39.5t77.5 -12.5v-33h-424v33q62 0 83 28t21 109v473q0 51 -6.5 78.5t-25.5 38.5t-56 14v35zM672 731
q20 -4 57 -4q42 0 79.5 23t58 63.5t20.5 91.5q0 172 -178 172h-37v-346zM764 1331q-167 0 -311.5 -83.5t-228 -227.5t-83.5 -311t83.5 -311.5t228 -228t311.5 -83.5t311.5 83t229 227.5t84.5 312.5t-84.5 312t-229 227t-311.5 83zM764 1417q192 0 356 -95.5t259.5 -258
t95.5 -354.5q0 -193 -95.5 -355.5t-259.5 -258t-356 -95.5t-355.5 95.5t-258.5 258.5t-95 355q0 191 95 354t258.5 258.5t355.5 95.5z" />
    <glyph glyph-name="copyright" unicode="&#xa9;" horiz-adv-x="1530" 
d="M1100 1137v-265h-39q-14 66 -47.5 114.5t-85 74.5t-113.5 26q-123 0 -190.5 -95.5t-67.5 -268.5q0 -215 82 -297q76 -76 172 -76q147 0 260 139v-71q-124 -127 -317 -127q-121 0 -218 51.5t-150.5 145t-53.5 210.5q0 93 32.5 175t91.5 141t141.5 92t174.5 33
q48 0 85.5 -7.5t70 -19.5l54 -19.5t32.5 -7.5q41 0 47 52h39zM764 1331q-167 0 -311.5 -83.5t-228 -227.5t-83.5 -311t83.5 -311.5t228 -228t311.5 -83.5t311.5 83t229 227.5t84.5 312.5t-84.5 312t-229 227t-311.5 83zM764 1417q192 0 356 -95.5t259.5 -258t95.5 -354.5
q0 -193 -95.5 -355.5t-259.5 -258t-356 -95.5t-355.5 95.5t-258.5 258.5t-95 355q0 191 95 354t258.5 258.5t355.5 95.5z" />
    <glyph glyph-name="trademark" unicode="&#x2122;" horiz-adv-x="2048" 
d="M-4 1397h776v-226h-35q-6 95 -49 135t-143 40h-37v-588q0 -57 7.5 -85t28 -38t64.5 -10v-35h-452v35q53 3 72 11t24.5 31t5.5 91v588h-33q-97 0 -142 -41t-54 -134h-33v226zM883 1397h368l232 -496l223 496h352v-39q-46 0 -66.5 -10t-28 -38t-7.5 -83v-496
q0 -59 22.5 -81t79.5 -25v-35h-461v35q49 0 71.5 9.5t30 37.5t7.5 86v499h-4l-309 -667h-25l-315 667h-4v-534q0 -39 9.5 -59t35 -29.5t69.5 -9.5v-35h-280v35q49 1 72.5 10.5t30.5 35t7 87.5v469q0 58 -7.5 86.5t-30 37.5t-72.5 9v37z" />
    <glyph glyph-name="acute" unicode="&#xb4;" horiz-adv-x="682" 
d="M174 1083l102 347h275l-299 -347h-78z" />
    <glyph glyph-name="dieresis" unicode="&#xa8;" horiz-adv-x="682" 
d="M172 1374q51 0 86 -35t35 -86q0 -50 -35 -85t-86 -35t-86 35t-35 85q0 51 35 86t86 35zM510 1374q51 0 86 -35t35 -86q0 -50 -35 -85t-86 -35t-86 35t-35 85q0 51 35 86t86 35z" />
    <glyph glyph-name="notequal" unicode="&#x2260;" horiz-adv-x="1124" 
d="M1087 289h-602l-163 -289h-111l166 289h-340v96h393l158 279h-551v96h604l164 291h108l-163 -291h337v-96h-391l-155 -279h546v-96z" />
    <glyph glyph-name="AE" unicode="&#xc6;" horiz-adv-x="1622" 
d="M1501 430h37l-65 -430h-910v37q80 0 111 31t31 108v465h-293l-189 -442q-30 -75 -30 -101t20.5 -40.5t65.5 -20.5v-37h-289v37q49 6 79 34.5t64 108.5l524 1217h787v-396h-35q-22 172 -106.5 246t-247.5 74h-68v-573q68 2 111.5 34t67.5 101.5t32 185.5h37v-713h-37
q-8 120 -29.5 184.5t-65.5 95.5t-116 36v-418q0 -112 21.5 -145t93.5 -33q90 0 154.5 22t109 65t76.5 107.5t59 159.5zM705 717v604h-5l-256 -604h261z" />
    <glyph glyph-name="Oslash" unicode="&#xd8;" horiz-adv-x="1323" 
d="M1227 1427l51 -41l-160 -188q142 -191 142 -504q0 -261 -93.5 -424t-230.5 -232t-272 -69q-111 0 -224.5 44t-199.5 139l-150 -177l-51 43l158 187q-134 184 -134 489q0 272 95.5 437t232 232t268.5 67q115 0 224.5 -45t193.5 -136zM930 975l-529 -629q27 -144 89 -222.5
t172 -78.5q114 0 176 81t84 226.5t22 360.5q0 153 -14 262zM391 436l529 627q-25 144 -86.5 217.5t-171.5 73.5q-107 0 -169.5 -74t-88 -216t-25.5 -355q0 -175 12 -273z" />
    <glyph glyph-name="infinity" unicode="&#x221e;" horiz-adv-x="1460" 
d="M1407 526q0 -186 -115 -307q-50 -53 -111.5 -83t-123.5 -30q-60 0 -112 25t-101.5 80t-98.5 139l-24 43q-44 -83 -90.5 -134.5t-103 -75t-130.5 -23.5q-100 0 -177.5 47t-122 132t-44.5 189q0 102 40.5 186.5t110.5 132.5t156 48q112 0 183 -68q54 -54 110 -159
q48 108 95 166q95 110 276 110q72 0 128 -19.5t110 -64.5q145 -124 145 -334zM1350 526q0 90 -38 169.5t-104 125t-141 45.5q-104 0 -172 -84q-29 -36 -54.5 -92t-78.5 -196l-12 -29q49 -101 93 -156.5t97.5 -81.5t120.5 -26q83 0 149 41.5t103 115.5t37 168zM625 590
q-38 80 -75 125t-84.5 67.5t-107.5 22.5q-74 0 -130 -35t-87.5 -97t-31.5 -143q0 -79 30.5 -147t83 -106.5t115.5 -38.5q60 0 115 36.5t84 92.5q39 77 77 190z" />
    <glyph glyph-name="plusminus" unicode="&#xb1;" horiz-adv-x="1366" 
d="M131 180h1104v-180h-1104v180zM131 989h461v463h180v-463h463v-180h-463v-463h-180v463h-461v180z" />
    <glyph glyph-name="lessequal" unicode="&#x2264;" horiz-adv-x="1124" 
d="M1065 221l-1006 498v51l1006 502v-111l-842 -416l842 -417v-107zM1065 0h-1006v96h1006v-96z" />
    <glyph glyph-name="greaterequal" unicode="&#x2265;" horiz-adv-x="1124" 
d="M1065 723l-1006 -502v111l842 416l-842 417v107l1006 -498v-51zM1065 0h-1006v96h1006v-96z" />
    <glyph glyph-name="yen" unicode="&#xa5;" horiz-adv-x="1110" 
d="M389 801l-133 348q-54 142 -77 172t-83 39v37h516v-37q-7 1 -21 1q-45 0 -69 -15.5t-24 -40.5q0 -8 3 -21t9.5 -29t7.5 -20l162 -434l127 362q35 96 35 133q0 32 -22 46.5t-83 17.5v37h275v-37q-42 -9 -63 -42t-70 -175l-119 -342h282v-76h-311l-4 -10v-262h315v-82h-315
v-203q0 -69 29.5 -100t89.5 -31h55v-37h-635v37h62q35 0 61 11.5t40.5 42.5t14.5 83v197h-325v75h325v211l-26 68h-299v76h270z" />
    <glyph glyph-name="mu" unicode="&#xb5;" horiz-adv-x="1139" 
d="M176 944h250v-678q0 -84 19.5 -120t64.5 -37q27 0 69 34t64 74v727h250v-723q0 -44 14.5 -70t42.5 -26q63 0 78 143h41q0 -102 -36 -168t-92.5 -94.5t-117.5 -28.5q-69 0 -111 37t-69 109q-46 -60 -106.5 -104t-118.5 -44t-86.5 11.5t-75.5 50.5l-4 -4q1 -55 9.5 -87.5
l32 -118t23.5 -118.5q0 -66 -19 -108.5t-81 -42.5q-48 0 -76 37.5t-28 103.5q0 46 20.5 133t31.5 151.5t11 172.5v788z" />
    <glyph glyph-name="partialdiff" unicode="&#x2202;" horiz-adv-x="1012" 
d="M995 920q0 -140 -28 -281t-81.5 -263.5t-127.5 -219.5q-143 -187 -355 -187q-154 0 -245.5 91.5t-91.5 244.5q0 157 76.5 296.5t203.5 222.5t270 83q106 0 189 -51q44 -27 72 -58t51 -81h4q10 147 10 186q0 117 -41.5 202t-120 130t-184.5 45q-100 0 -171.5 -37.5
t-129.5 -122.5h-45q35 74 61.5 116t63.5 79q49 51 117 79.5t137 28.5q47 0 94 -13.5t88 -39.5t70 -59q114 -130 114 -391zM911 629q-36 105 -111 165t-173 60q-81 0 -157.5 -49t-121.5 -127q-33 -57 -60 -132t-41 -146.5t-14 -135.5q0 -108 53.5 -172.5t143.5 -64.5
q72 0 152 49.5t147 136.5q70 93 112 188.5t70 227.5z" />
    <glyph glyph-name="summation" unicode="&#x2211;" horiz-adv-x="1460" 
d="M1419 212l-63 -416h-1313v37l670 831l-670 814v39h1278l27 -338h-39q-16 133 -76 194.5t-174 61.5h-740l562 -685l-629 -778h819q54 0 114.5 17t90.5 39q36 25 60.5 71t43.5 121z" />
    <glyph glyph-name="product" unicode="&#x220f;" horiz-adv-x="1686" 
d="M1640 -204h-598v37h35q87 0 125.5 37.5t38.5 118.5v1450h-797v-1450q0 -79 39.5 -117.5t122.5 -38.5h37v-37h-598v37h35q87 0 125.5 37.5t38.5 118.5v1335q0 83 -38.5 119.5t-125.5 36.5h-35v37h1595v-37h-34q-85 0 -124.5 -36.5t-39.5 -119.5v-1335q0 -81 39.5 -118.5
t124.5 -37.5h34v-37z" />
    <glyph glyph-name="pi" unicode="&#xf006;" horiz-adv-x="1124" 
d="M1049 258q-7 -61 -18.5 -104.5t-31.5 -79.5q-24 -48 -66.5 -76.5t-90.5 -28.5q-35 0 -69.5 16.5t-53.5 43.5q-32 44 -46 107.5t-14 168.5q0 62 7 158q3 27 5 52.5t9 98.5l5.5 48l6.5 55l6 53h-260l-4 -61q-17 -294 -39.5 -450t-58.5 -223t-94 -67q-34 0 -59 25t-25 59
q0 27 12 52t43 67q46 59 68.5 113t37.5 143q15 85 22.5 160.5t12.5 181.5h-45q-50 0 -74 -6.5t-51 -26.5q-46 -36 -90 -110h-39q52 160 116.5 224t174.5 64h703v-145h-242q-17 -109 -26 -222.5t-9 -215.5q0 -93 33 -142t92 -49q97 0 117 117h35z" />
    <glyph glyph-name="integral" unicode="&#x222b;" horiz-adv-x="561" 
d="M561 1755q0 -29 -12.5 -53t-34 -36.5t-47.5 -12.5q-36 0 -76 35q-20 20 -39 20q-41 0 -41 -63q0 -46 11 -146q18 -204 27 -371t9 -294l-2 -121l-14 -471q-6 -190 -49 -320q-22 -67 -68 -104t-106 -37q-54 0 -86.5 33.5t-32.5 87.5q0 44 25 71t65 27q42 0 70 -33
q13 -14 24 -22t25 -8q39 0 39 61q0 37 -10 119q-20 170 -29 395q-3 104 -6 229q-2 70 -2 154l16 553q6 191 66 317q19 40 63.5 69.5t87.5 29.5q31 0 61.5 -15t48 -41t17.5 -53z" />
    <glyph glyph-name="ordfeminine" unicode="&#xaa;" horiz-adv-x="618" 
d="M559 954l35 -28q-53 -97 -145 -97q-42 0 -71.5 21t-39.5 55q-63 -46 -95 -61t-71 -15q-54 0 -91.5 36.5t-37.5 90.5q0 63 66 119t229 127v82q0 52 -13.5 70t-54.5 18q-32 0 -51.5 -12.5t-19.5 -32.5q0 -15 20.5 -38.5t20.5 -43.5q0 -30 -25.5 -47.5t-64.5 -17.5
q-44 0 -71.5 22t-27.5 58q0 43 36 82t97 62t133 23q95 0 149 -38.5t54 -108.5v-307q0 -53 12 -53q10 0 27 34zM338 971v168q-61 -36 -85 -66.5t-24 -68.5q0 -25 13.5 -42.5t33.5 -17.5q25 0 62 27z" />
    <glyph glyph-name="ordmasculine" unicode="&#xba;" horiz-adv-x="618" 
d="M580 1133q0 -91 -32.5 -160.5t-94.5 -106.5t-144 -37q-122 0 -196 82.5t-74 218.5q0 133 74 215t194 82q123 0 198 -80t75 -214zM379 1118q0 136 -16 197t-52 61q-40 0 -56.5 -57.5t-16.5 -192.5q0 -131 17.5 -187t57.5 -56q24 0 38.5 22.5t21 75t6.5 137.5z" />
    <glyph glyph-name="Omega" unicode="&#x2126;" horiz-adv-x="1573" 
d="M1518 0h-568l23 279q97 39 158 102t89.5 154.5t28.5 218.5q0 259 -123 405q-64 76 -152 117t-192 41q-102 0 -187 -39.5t-147 -112.5t-95.5 -175t-33.5 -222q0 -133 38 -242.5t106 -171.5q31 -28 57 -42.5t76 -32.5l22 -279h-563v279h35q3 -61 31 -82q26 -20 55.5 -27.5
t83.5 -7.5h270v69q-137 40 -236.5 118.5t-150.5 190t-51 248.5q0 130 50.5 241t142.5 191t218.5 123t278.5 43q154 0 283.5 -43.5t221 -121.5t143 -189.5t51.5 -243.5q0 -137 -54.5 -253t-154.5 -195.5t-230 -108.5l-8 -69h275q88 0 125 24.5t45 92.5h39v-279z" />
    <glyph glyph-name="ae" unicode="&#xe6;" horiz-adv-x="1217" 
d="M1135 272l36 -18q-32 -89 -83 -151t-118 -95t-147 -33q-87 0 -148.5 39.5t-121.5 132.5q-179 -172 -301 -172q-84 0 -141.5 59t-57.5 144q0 90 64 164.5t217 157.5l164 88v90q0 131 -25 177t-96 46q-54 0 -88.5 -21.5t-34.5 -54.5q0 -19 21 -50.5t30.5 -50t9.5 -54.5
q0 -44 -32.5 -72.5t-85.5 -28.5q-58 0 -97 36.5t-39 90.5q0 70 51.5 133t135 101.5t176.5 38.5q128 0 221 -84q95 84 199 84q102 0 177 -57t114.5 -153.5t39.5 -215.5q0 -26 -1 -39h-426v-86q0 -76 25.5 -144t72 -108.5t106.5 -40.5q108 0 183 147zM498 174v346
q-102 -63 -148.5 -126.5t-46.5 -133.5q0 -35 13 -66t36 -48t51 -17q20 0 48.5 14t46.5 31zM934 571v136q0 194 -90 194q-49 0 -72.5 -54t-23.5 -192v-84h186z" />
    <glyph glyph-name="oslash" unicode="&#xf8;" 
d="M586 563l-248 -289q9 -113 39 -172t88 -59q47 0 74 37t39 124.5t12 250.5q0 82 -4 108zM332 367l252 292q-9 124 -37.5 183t-85.5 59q-48 0 -77.5 -41.5t-42.5 -136.5t-13 -262q0 -68 4 -94zM838 958l53 -40l-109 -127q37 -60 57.5 -139.5t20.5 -174.5
q0 -151 -48.5 -265.5t-139 -175.5t-213.5 -61q-172 0 -275 119l-98 -114l-49 43l106 124q-86 131 -86 330q0 108 28.5 198.5t82 156.5t126.5 101.5t161 35.5q177 0 286 -123z" />
    <glyph glyph-name="questiondown" unicode="&#xbf;" horiz-adv-x="705" 
d="M387 489h41q2 -20 2 -59q0 -112 -35 -203l-39 -104q-43 -120 -43 -240q0 -134 41 -216.5t105 -82.5q22 0 38.5 14.5t16.5 34.5q0 26 -22 66l-27 45q-29 48 -29 94q0 55 31 89t78 34q58 0 90.5 -42.5t32.5 -115.5q0 -132 -76 -210t-205 -78q-100 0 -178.5 41t-122 116.5
t-43.5 173.5q0 97 39.5 170t134.5 154q72 62 103.5 99.5t45 79t19.5 118.5zM547 819q0 -43 -21 -77.5t-54.5 -54t-74.5 -19.5q-42 0 -76.5 20t-54.5 54.5t-20 76.5q0 41 19.5 74.5t54 54.5t77.5 21q42 0 75.5 -20.5t54 -54t20.5 -75.5z" />
    <glyph glyph-name="exclamdown" unicode="&#xa1;" horiz-adv-x="512" 
d="M233 492h46v-11v-4q0 -61 12 -150t35 -190l41 -174q43 -183 43 -278q0 -79 -41 -124.5t-113 -45.5q-74 0 -115 43.5t-41 119.5q0 48 7.5 102t35.5 181q55 246 71 343t19 188zM406 819q0 -63 -45 -107t-107 -44q-42 0 -76 19.5t-55 54t-21 77.5q0 42 20.5 75.5t54.5 54
t77 20.5q62 0 107 -44t45 -106z" />
    <glyph glyph-name="logicalnot" unicode="&#xac;" horiz-adv-x="1366" 
d="M131 1026h1104v-659h-180v479h-924v180z" />
    <glyph glyph-name="radical" unicode="&#x221a;" horiz-adv-x="1124" 
d="M1124 1870l-311 -1948l-496 1022l-198 -92l-35 63l301 152l403 -823h5l258 1626h73z" />
    <glyph glyph-name="florin" unicode="&#x192;" horiz-adv-x="1024" 
d="M598 803l-152 -715q-37 -176 -105.5 -293t-152 -170t-168.5 -53q-70 0 -115.5 33.5t-45.5 87.5q0 41 31.5 71.5t74.5 30.5t69.5 -22.5t26.5 -59.5q0 -12 -6 -33t-6 -24q0 -8 11 -14.5t22 -6.5q32 0 56 34.5t24 86.5q0 4 -4 86q-4 78 -4 135q0 62 8 125q10 77 33 187
l108 514h-147l26 127q113 0 160 47q31 31 54.5 76.5t48.5 110t46.5 105.5t59.5 79q82 82 203 82q76 0 122 -36.5t46 -97.5q0 -50 -32 -84t-81 -34q-36 0 -63 25t-27 61q0 22 16.5 56t16.5 40q0 7 -9 13.5t-20 6.5q-43 0 -69.5 -37.5t-26.5 -101.5q0 -34 4 -98t4 -92
q0 -36 -14 -121h159l-24 -127h-158z" />
    <glyph glyph-name="approxequal" unicode="&#x2248;" horiz-adv-x="1124" 
d="M1073 874q-20 -152 -93.5 -236.5t-188.5 -84.5q-56 0 -123.5 26.5t-180.5 90.5q-140 78 -211 78q-72 0 -118.5 -49.5t-59.5 -137.5h-47q20 151 93 236.5t182 85.5q48 0 123 -25q56 -21 208 -102q118 -62 193 -62q41 0 68.5 13.5t54.5 46.5q39 47 49 120h51zM1073 487
q-20 -152 -93.5 -236.5t-188.5 -84.5q-56 0 -121 25t-183 90q-71 42 -121 60.5t-90 18.5q-72 0 -118.5 -49t-59.5 -137h-47q12 98 49 170.5t95 111t131 38.5q48 0 123 -25q52 -16 208 -100q118 -62 193 -62q41 0 68.5 13.5t54.5 46.5q39 47 49 120h51z" />
    <glyph glyph-name="Delta" unicode="&#x2206;" horiz-adv-x="1253" 
d="M1227 0h-1200l628 1386zM991 82l-399 967l-440 -967h839z" />
    <glyph glyph-name="guillemotleft" unicode="&#xab;" 
d="M678 516l182 -463h-67l-359 463l359 463h67zM299 516l182 -463h-67l-359 463l359 463h67z" />
    <glyph glyph-name="guillemotright" unicode="&#xbb;" 
d="M618 516l-182 463h68l358 -463l-358 -463h-68zM240 516l-183 463h68l358 -463l-358 -463h-68z" />
    <glyph glyph-name="ellipsis" unicode="&#x2026;" horiz-adv-x="2048" 
d="M1710 276q64 0 107 -43t43 -106q0 -64 -43 -108t-107 -44q-43 0 -77.5 21t-54 55t-19.5 76q0 62 43.5 105.5t107.5 43.5zM1026 276q64 0 107 -43t43 -106q0 -64 -43 -108t-107 -44q-43 0 -77 20.5t-54.5 54.5t-20.5 77q0 63 44 106t108 43zM342 276q64 0 107 -43t43 -106
q0 -64 -43 -108t-107 -44q-43 0 -77 20.5t-54.5 54.5t-20.5 77q0 63 44 106t108 43z" />
    <glyph glyph-name="nonbreakingspace" unicode="&#xa0;" horiz-adv-x="389" 
 />
    <glyph glyph-name="Agrave" unicode="&#xc0;" horiz-adv-x="1110" 
d="M1077 37v-37h-491v37q57 0 79.5 13t22.5 42q0 34 -18 101l-41 139h-348l-41 -139q-21 -69 -21 -89q0 -67 103 -67v-37h-289v37q37 6 59 24t42.5 64.5t47.5 134.5l367 1170h37l354 -1184q36 -122 63 -162.5t74 -46.5zM606 408l-145 485h-4l-152 -485h301zM662 1522h-78
l-299 347h275z" />
    <glyph glyph-name="Atilde" unicode="&#xc3;" horiz-adv-x="1110" 
d="M1077 37v-37h-491v37q57 0 79.5 13t22.5 42q0 34 -18 101l-41 139h-348l-41 -139q-21 -69 -21 -89q0 -67 103 -67v-37h-289v37q37 6 59 24t42.5 64.5t47.5 134.5l367 1170h37l354 -1184q36 -122 63 -162.5t74 -46.5zM606 408l-145 485h-4l-152 -485h301zM782 1829h64
q-3 -134 -50 -205.5t-132 -71.5q-45 0 -78.5 14t-98.5 47t-88 33q-30 0 -45 -22t-24 -72h-64q1 81 23 145t61.5 99t89.5 35q35 0 72.5 -13.5t82 -37.5t70.5 -35t52 -11q28 0 43 21.5t22 73.5z" />
    <glyph glyph-name="Otilde" unicode="&#xd5;" horiz-adv-x="1323" 
d="M1260 694q0 -261 -93.5 -424t-230.5 -232t-272 -69q-102 0 -206.5 37t-194 119.5t-145 224.5t-55.5 344q0 272 95.5 437t232 232t268.5 67q147 0 285 -74t227 -239.5t89 -422.5zM944 713q0 161 -12.5 275.5t-43.5 196.5t-85 125.5t-141 43.5q-107 0 -169.5 -74t-88 -216
t-25.5 -355q0 -151 11 -266.5t40 -205t85.5 -141t146.5 -51.5q114 0 176 81t84 226.5t22 360.5zM888 1829h64q-3 -134 -50 -205.5t-132 -71.5q-45 0 -78.5 14t-98.5 47t-88 33q-30 0 -45 -22t-24 -72h-64q1 81 23 145t61.5 99t89.5 35q35 0 72.5 -13.5t82 -37.5t70.5 -35
t52 -11q28 0 43 21.5t22 73.5z" />
    <glyph glyph-name="OE" unicode="&#x152;" horiz-adv-x="1622" 
d="M1559 434h36l-59 -434h-664q-66 0 -143 -6q-106 -8 -129 -8q-126 0 -227 50t-171 145t-106.5 232t-36.5 306q0 216 67.5 373.5t187 238t270.5 80.5q44 0 131 -6q110 -8 168 -8h639v-396h-37q-22 169 -104 244.5t-242 75.5h-68v-573q97 1 144 81t49 240h36v-711h-36
q-3 114 -22 181t-60 98t-111 35v-428q0 -97 22.5 -132.5t98.5 -35.5q278 0 367 358zM788 326v702q0 160 -43.5 233.5t-138.5 73.5q-69 0 -112 -31t-69.5 -104t-38 -194.5t-11.5 -319.5q0 -239 26 -377t77.5 -193t133.5 -55q94 0 135 65t41 200z" />
    <glyph glyph-name="oe" unicode="&#x153;" horiz-adv-x="1217" 
d="M1137 272l34 -20q-47 -129 -131.5 -203t-183.5 -74q-111 0 -199 97q-96 -97 -239 -97q-113 0 -195.5 57.5t-126 165.5t-43.5 257q0 188 60 303t145.5 163t171.5 48q66 0 120.5 -21t106.5 -67q86 88 193 88q88 0 162 -54.5t117 -154.5t43 -227q0 -10 -0.5 -16t-0.5 -13
h-397v-101q0 -69 22.5 -133t64.5 -102.5t97 -38.5q97 0 179 143zM428 43q44 0 65.5 40t29 146.5t7.5 313.5q0 135 -10 212.5t-32.5 111.5t-61.5 34q-36 0 -58 -32t-33 -125.5t-11 -264.5q0 -176 9 -266t31 -130t64 -40zM930 571v113q0 117 -19.5 167t-62.5 50q-38 0 -57 -50
t-19 -173v-107h158z" />
    <glyph glyph-name="endash" unicode="&#x2013;" horiz-adv-x="1024" 
d="M-12 575h1048v-129h-1048v129z" />
    <glyph glyph-name="emdash" unicode="&#x2014;" horiz-adv-x="2048" 
d="M-12 575h2072v-129h-2072v129z" />
    <glyph glyph-name="quotedblleft" unicode="&#x201c;" 
d="M813 1397v-45q-86 -43 -143.5 -123t-57.5 -158q0 -16 6.5 -28.5t16.5 -12.5q4 0 30 11.5t48 11.5q54 0 90.5 -39.5t36.5 -102.5q0 -45 -19 -81t-53 -56t-78 -20q-84 0 -136 65t-52 170q0 90 38 170t108.5 141.5t164.5 96.5zM391 1397v-45q-58 -30 -103 -75t-71.5 -100.5
t-26.5 -105.5q0 -16 6.5 -28.5t16.5 -12.5q4 0 30 11.5t48 11.5q56 0 91.5 -39.5t35.5 -102.5q0 -45 -19 -81t-53 -56t-78 -20q-84 0 -136 65t-52 170q0 90 38 170t108.5 141.5t164.5 96.5z" />
    <glyph glyph-name="quotedblright" unicode="&#x201d;" 
d="M526 778v45q85 42 143 122.5t58 158.5q0 19 -6 30t-16 11q-7 0 -20 -6.5t-27.5 -11.5t-30.5 -5q-56 0 -91.5 40.5t-35.5 101.5q0 69 41.5 113t107.5 44q86 0 137.5 -65t51.5 -170q0 -135 -83 -244.5t-229 -163.5zM104 778v45q85 42 143 122.5t58 158.5q0 19 -6 30t-16 11
q-7 0 -20 -6.5t-27.5 -11.5t-30.5 -5q-56 0 -91.5 40.5t-35.5 101.5q0 69 41.5 113t107.5 44q86 0 137.5 -65t51.5 -170q0 -135 -83 -244.5t-229 -163.5z" />
    <glyph glyph-name="quoteleft" unicode="&#x2018;" horiz-adv-x="512" 
d="M399 1397v-45q-59 -30 -103 -75t-70.5 -100.5t-26.5 -105.5q0 -41 22 -41q5 0 30 11.5t48 11.5q56 0 91.5 -39.5t35.5 -102.5q0 -45 -19 -81.5t-53 -56t-78 -19.5q-84 0 -136 65t-52 170q0 90 38 170t108.5 141.5t164.5 96.5z" />
    <glyph glyph-name="quoteright" unicode="&#x2019;" horiz-adv-x="512" 
d="M113 778v45q59 30 103 75t70.5 100.5t26.5 105.5q0 19 -6 30t-16 11q-7 0 -20 -6.5t-27.5 -11.5t-30.5 -5q-56 0 -91.5 40.5t-35.5 101.5q0 69 41.5 113t108.5 44q85 0 136.5 -65t51.5 -170q0 -135 -83 -244.5t-228 -163.5z" />
    <glyph glyph-name="divide" unicode="&#xf7;" horiz-adv-x="1368" 
d="M684 1221q30 0 57 -15.5t41.5 -40.5t14.5 -57t-15 -58.5t-41.5 -41.5t-56.5 -15q-46 0 -80.5 33.5t-34.5 81.5t33.5 80.5t81.5 32.5zM131 784h1104v-178h-1104v178zM684 397q48 0 80.5 -31.5t32.5 -80.5q0 -32 -15 -58.5t-41.5 -41.5t-56.5 -15q-46 0 -80.5 33.5
t-34.5 81.5t34 80t81 32z" />
    <glyph glyph-name="lozenge" unicode="&#x25ca;" horiz-adv-x="1012" 
d="M967 709l-418 -709h-111l-391 709l391 714h111zM854 709l-358 616l-340 -616l340 -615z" />
    <glyph glyph-name="ydieresis" unicode="&#xff;" horiz-adv-x="811" 
d="M776 944v-37q-38 -11 -57.5 -43t-44.5 -127l-230 -891q-38 -149 -89.5 -212.5t-139.5 -63.5q-73 0 -119.5 43.5t-46.5 110.5q0 55 31.5 90.5t81.5 35.5q43 0 70.5 -28.5t27.5 -69.5q0 -11 -0.5 -19t-1.5 -18q0 -43 29 -43q45 0 88 158l26 96l-295 887q-17 53 -30.5 70
t-42.5 24v37h401v-37q-80 -3 -80 -49q0 -16 29 -104l125 -389h4l90 354q21 86 21 119q0 55 -70 69v37h223zM237 1389q51 0 86 -35t35 -86q0 -50 -35 -85t-86 -35t-86 35t-35 85q0 51 35 86t86 35zM575 1389q51 0 86 -35t35 -86q0 -50 -35 -85t-86 -35t-86 35t-35 85
q0 51 35 86t86 35z" />
    <glyph glyph-name="Ydieresis" unicode="&#x178;" horiz-adv-x="1110" 
d="M1073 1397v-37q-28 -6 -43.5 -20.5t-33.5 -55t-56 -141.5l-213 -572v-354q0 -106 25 -143.5t116 -37.5q21 0 33 1v-37h-635v37q14 -1 39 -1q80 0 109.5 30t29.5 108v340l-249 635q-36 91 -57.5 135.5t-40 56.5t-62.5 19v37h516v-37q-8 1 -22 1q-46 0 -69.5 -15.5
t-23.5 -40.5q0 -19 21 -68l223 -580l188 506q35 93 35 133q0 61 -104 64v37h274zM387 1812q51 0 86 -35t35 -86q0 -50 -35 -85t-86 -35t-86 35t-35 85q0 51 35 86t86 35zM725 1812q51 0 86 -35t35 -86q0 -50 -35 -85t-86 -35t-86 35t-35 85q0 51 35 86t86 35z" />
    <glyph glyph-name="fraction" unicode="&#x2215;" horiz-adv-x="299" 
d="M-211 -12h-94l813 1431h94z" />
    <glyph glyph-name="apple" unicode="&#x20ac;" 
d="M717 737h-346v-84h319l-22 -78h-297q3 -160 22 -277.5t63.5 -186t118.5 -68.5q78 0 144.5 67.5t105.5 137.5l31 -21q-35 -71 -68.5 -122t-105 -98.5t-172.5 -47.5q-91 0 -163.5 51t-126 142t-83.5 201.5t-39 221.5h-80l23 78h53q0 56 2 84h-78l23 78h63q23 160 78 290
t154.5 212.5t241.5 83.5q81 0 130.5 -21.5t122.5 -66.5v-299h-38q-9 104 -29.5 175t-58 108.5t-95.5 37.5q-68 0 -111 -44t-64.5 -114.5t-34 -171.5l-23.5 -190h362z" />
    <glyph glyph-name="guilsinglleft" unicode="&#x2039;" horiz-adv-x="618" 
d="M334 516l182 -463h-67l-359 463l359 463h67z" />
    <glyph glyph-name="guilsinglright" unicode="&#x203a;" horiz-adv-x="618" 
d="M285 516l-183 463h68l358 -463l-358 -463h-68z" />
    <glyph glyph-name="fi" unicode="&#xf001;" horiz-adv-x="1004" 
d="M893 967v-807q0 -56 5.5 -80.5t23 -33.5t57.5 -9v-37h-424v37q40 0 58 6.5t24 31t6 85.5v696h-233v-696q0 -42 3 -67t11 -36.5t24 -15.5t41 -4v-37h-419v37q42 0 60 6.5t24 31t6 85.5v696h-121v88h121v143q0 112 52.5 189.5t142 115.5t200.5 38q96 0 165.5 -23.5
t106.5 -66t37 -99.5t-35 -93t-92 -36q-47 0 -78.5 25t-31.5 59q0 27 21.5 58.5t21.5 45.5q0 29 -29.5 45.5t-81.5 16.5q-79 0 -114 -43t-35 -154v-221h227q176 0 256 23z" />
    <glyph glyph-name="fi" unicode="&#xfb01;" horiz-adv-x="1004" 
d="M893 967v-807q0 -56 5.5 -80.5t23 -33.5t57.5 -9v-37h-424v37q40 0 58 6.5t24 31t6 85.5v696h-233v-696q0 -42 3 -67t11 -36.5t24 -15.5t41 -4v-37h-419v37q42 0 60 6.5t24 31t6 85.5v696h-121v88h121v143q0 112 52.5 189.5t142 115.5t200.5 38q96 0 165.5 -23.5
t106.5 -66t37 -99.5t-35 -93t-92 -36q-47 0 -78.5 25t-31.5 59q0 27 21.5 58.5t21.5 45.5q0 29 -29.5 45.5t-81.5 16.5q-79 0 -114 -43t-35 -154v-221h227q176 0 256 23z" />
    <glyph glyph-name="fl" unicode="&#xf002;" horiz-adv-x="1004" 
d="M893 1397v-1237q0 -56 6 -81t23 -33.5t55 -8.5v-37h-420v37q39 0 56.5 6.5t23.5 31t6 85.5v696h-235v-696q0 -60 6 -84.5t23.5 -31.5t58.5 -7v-37h-449v37q11 -1 31 -1q39 0 55 10.5t20.5 35t4.5 84.5v690h-121v88h121v150q0 116 56 191.5t141 110t169 34.5q82 0 146 -33
h223zM643 944v219q-33 17 -33 47q0 21 23.5 52.5t23.5 44.5q0 19 -14.5 33.5t-41.5 23t-58 8.5q-59 0 -90 -26.5t-39 -85.5q-6 -43 -6 -189v-127h235z" />
    <glyph glyph-name="fl" unicode="&#xfb02;" horiz-adv-x="1004" 
d="M893 1397v-1237q0 -56 6 -81t23 -33.5t55 -8.5v-37h-420v37q39 0 56.5 6.5t23.5 31t6 85.5v696h-235v-696q0 -60 6 -84.5t23.5 -31.5t58.5 -7v-37h-449v37q11 -1 31 -1q39 0 55 10.5t20.5 35t4.5 84.5v690h-121v88h121v150q0 116 56 191.5t141 110t169 34.5q82 0 146 -33
h223zM643 944v219q-33 17 -33 47q0 21 23.5 52.5t23.5 44.5q0 19 -14.5 33.5t-41.5 23t-58 8.5q-59 0 -90 -26.5t-39 -85.5q-6 -43 -6 -189v-127h235z" />
    <glyph glyph-name="daggerdbl" unicode="&#x2021;" 
d="M731 901q-22 0 -44 8t-62 27t-73.5 29t-74.5 10q9 -103 98 -184q-102 -79 -102 -261q0 -114 25 -182.5t77 -101.5q-92 -86 -98 -185q35 0 66 9t69 27t63 27t58 9q43 0 67.5 -25.5t24.5 -68.5q0 -41 -23 -66.5t-63 -25.5q-30 0 -65 14.5t-60.5 27.5t-60 23.5t-76.5 10.5
q0 -49 9.5 -79t31 -74.5t32.5 -76t11 -72.5q0 -52 -27.5 -83t-74.5 -31t-75 31t-28 81q0 36 10.5 67t29.5 73t31.5 83t12.5 81q-35 0 -69.5 -10.5t-83 -31.5t-66.5 -27.5t-39 -6.5q-39 0 -64.5 26.5t-25.5 67.5t25.5 66.5t64.5 25.5q36 0 59.5 -8.5t59.5 -26.5t68.5 -27.5
t70.5 -9.5q-8 99 -102 185q102 86 102 260q0 195 -102 285q93 82 102 184q-57 0 -139 -37t-117 -37q-40 0 -66 26t-26 66q0 27 11 48.5t31.5 33.5t45.5 12q24 0 55 -10t70.5 -27.5t72 -27.5t62.5 -10q0 38 -12.5 78t-34 91t-29.5 75t-8 55q0 53 27.5 86t75.5 33q46 0 74 -31
t28 -82q0 -36 -11.5 -71.5t-32.5 -83t-30.5 -79t-9.5 -71.5q38 3 71 13.5t74.5 28t64 25.5t46.5 8q41 0 66.5 -25.5t25.5 -62.5q0 -39 -28.5 -68.5t-65.5 -29.5z" />
    <glyph glyph-name="periodcentered" unicode="&#x2219;" horiz-adv-x="512" 
d="M258 848q64 0 107 -43t43 -107t-43.5 -107.5t-106.5 -43.5q-42 0 -76 19.5t-55 54t-21 77.5q0 64 44 107t108 43z" />
    <glyph glyph-name="quotesinglbase" unicode="&#x201a;" horiz-adv-x="512" 
d="M115 -369v45q59 30 102.5 74.5t70.5 100.5t27 106q0 19 -6 30t-16 11q-1 0 -31 -10q-26 -13 -47 -13q-56 0 -91.5 40.5t-35.5 101.5q0 68 42 112.5t108 44.5q85 0 136.5 -65t51.5 -170q0 -135 -83 -244.5t-228 -163.5z" />
    <glyph glyph-name="quotedblbase" unicode="&#x201e;" 
d="M528 -369v45q56 28 101.5 73.5t72.5 101.5t27 106q0 19 -6 30t-16 11q-1 0 -31 -10q-26 -13 -47 -13q-56 0 -91.5 40.5t-35.5 101.5q0 69 41.5 113t107.5 44q86 0 137.5 -65t51.5 -170q0 -135 -83 -244.5t-229 -163.5zM106 -369v45q56 28 101.5 73.5t72.5 101.5t27 106
q0 19 -6 30t-16 11q-1 0 -31 -10q-26 -13 -47 -13q-56 0 -91.5 40.5t-35.5 101.5q0 69 41.5 113t107.5 44q86 0 137.5 -65t51.5 -170q0 -135 -83 -244.5t-229 -163.5z" />
    <glyph glyph-name="perthousand" unicode="&#x2030;" horiz-adv-x="1772" 
d="M1485 37q21 0 30.5 13.5t14 57.5t4.5 142v229q0 92 -3.5 137.5t-13 59.5t-32.5 14q-27 0 -35 -32.5t-8 -159.5v-285q0 -101 9 -138.5t34 -37.5zM1243 362q0 177 64.5 277t179.5 100q75 0 130.5 -44t85.5 -126.5t30 -197.5q0 -128 -31 -213.5t-86 -127.5t-129 -42
q-115 0 -179.5 99.5t-64.5 274.5zM240 -12h-97l815 1431h95zM39 1044q0 177 64.5 277t179.5 100q75 0 130 -44t85 -126.5t30 -197.5q0 -128 -30.5 -213.5t-86 -127.5t-128.5 -42q-115 0 -179.5 99.5t-64.5 274.5zM281 719q19 0 29.5 13.5t15 56t4.5 143.5v229
q0 92 -3.5 137.5t-13 59.5t-32.5 14q-27 0 -35 -32.5t-8 -159.5v-285q0 -101 9 -138.5t34 -37.5zM670 362q0 177 64.5 277t178.5 100q76 0 131 -44t85 -126.5t30 -197.5q0 -191 -66 -287t-180 -96q-76 0 -130.5 44t-83.5 129t-29 201zM911 37q21 0 31 14t14.5 56t4.5 143
v229q0 92 -3.5 138t-13 59.5t-33.5 13.5q-27 0 -35 -31.5t-8 -160.5v-285q0 -101 9 -138.5t34 -37.5z" />
    <glyph glyph-name="Acircumflex" unicode="&#xc2;" horiz-adv-x="1110" 
d="M1077 37v-37h-491v37q57 0 79.5 13t22.5 42q0 34 -18 101l-41 139h-348l-41 -139q-21 -69 -21 -89q0 -67 103 -67v-37h-289v37q37 6 59 24t42.5 64.5t47.5 134.5l367 1170h37l354 -1184q36 -122 63 -162.5t74 -46.5zM606 408l-145 485h-4l-152 -485h301zM270 1505
l189 373h196l187 -373h-74l-213 193l-209 -193h-76z" />
    <glyph glyph-name="Ecircumflex" unicode="&#xca;" horiz-adv-x="1110" 
d="M1032 430h37l-68 -430h-974v37q7 0 11 -0.5t8 -0.5q69 0 97.5 34t28.5 108v1039q0 79 -28 111t-117 32v37h944v-400h-37q-16 142 -92.5 233t-280.5 91h-106v-573q78 3 131 37t80.5 104.5t27.5 179.5h37v-711h-37q0 311 -239 314v-430q0 -73 9 -107t34 -46.5t77 -12.5
q130 0 215.5 34.5t141.5 111.5t100 208zM270 1505l189 373h196l187 -373h-74l-213 193l-209 -193h-76z" />
    <glyph glyph-name="Aacute" unicode="&#xc1;" horiz-adv-x="1110" 
d="M1077 37v-37h-491v37q57 0 79.5 13t22.5 42q0 34 -18 101l-41 139h-348l-41 -139q-21 -69 -21 -89q0 -67 103 -67v-37h-289v37q37 6 59 24t42.5 64.5t47.5 134.5l367 1170h37l354 -1184q36 -122 63 -162.5t74 -46.5zM606 408l-145 485h-4l-152 -485h301zM451 1522
l102 347h275l-299 -347h-78z" />
    <glyph glyph-name="Edieresis" unicode="&#xcb;" horiz-adv-x="1110" 
d="M1032 430h37l-68 -430h-974v37q7 0 11 -0.5t8 -0.5q69 0 97.5 34t28.5 108v1039q0 79 -28 111t-117 32v37h944v-400h-37q-16 142 -92.5 233t-280.5 91h-106v-573q78 3 131 37t80.5 104.5t27.5 179.5h37v-711h-37q0 311 -239 314v-430q0 -73 9 -107t34 -46.5t77 -12.5
q130 0 215.5 34.5t141.5 111.5t100 208zM387 1812q51 0 86 -35t35 -86q0 -50 -35 -85t-86 -35t-86 35t-35 85q0 51 35 86t86 35zM725 1812q51 0 86 -35t35 -86q0 -50 -35 -85t-86 -35t-86 35t-35 85q0 51 35 86t86 35z" />
    <glyph glyph-name="Egrave" unicode="&#xc8;" horiz-adv-x="1110" 
d="M1032 430h37l-68 -430h-974v37q7 0 11 -0.5t8 -0.5q69 0 97.5 34t28.5 108v1039q0 79 -28 111t-117 32v37h944v-400h-37q-16 142 -92.5 233t-280.5 91h-106v-573q78 3 131 37t80.5 104.5t27.5 179.5h37v-711h-37q0 311 -239 314v-430q0 -73 9 -107t34 -46.5t77 -12.5
q130 0 215.5 34.5t141.5 111.5t100 208zM723 1522h-78l-299 347h275z" />
    <glyph glyph-name="Iacute" unicode="&#xcd;" horiz-adv-x="598" 
d="M33 1397h532v-37q-65 0 -96 -31.5t-31 -99.5v-1051q0 -51 11.5 -81t40 -45t75.5 -15v-37h-532v37q66 0 94.5 33t28.5 106v1045q0 66 -24.5 102.5t-98.5 36.5v37zM174 1522l102 347h275l-299 -347h-78z" />
    <glyph glyph-name="Icircumflex" unicode="&#xce;" horiz-adv-x="598" 
d="M33 1397h532v-37q-65 0 -96 -31.5t-31 -99.5v-1051q0 -51 11.5 -81t40 -45t75.5 -15v-37h-532v37q66 0 94.5 33t28.5 106v1045q0 66 -24.5 102.5t-98.5 36.5v37zM14 1505l189 373h196l187 -373h-74l-213 193l-209 -193h-76z" />
    <glyph glyph-name="Idieresis" unicode="&#xcf;" horiz-adv-x="598" 
d="M33 1397h532v-37q-65 0 -96 -31.5t-31 -99.5v-1051q0 -51 11.5 -81t40 -45t75.5 -15v-37h-532v37q66 0 94.5 33t28.5 106v1045q0 66 -24.5 102.5t-98.5 36.5v37zM131 1812q51 0 86 -35t35 -86q0 -50 -35 -85t-86 -35t-86 35t-35 85q0 51 35 86t86 35zM469 1812
q51 0 86 -35t35 -86q0 -50 -35 -85t-86 -35t-86 35t-35 85q0 51 35 86t86 35z" />
    <glyph glyph-name="Igrave" unicode="&#xcc;" horiz-adv-x="598" 
d="M33 1397h532v-37q-65 0 -96 -31.5t-31 -99.5v-1051q0 -51 11.5 -81t40 -45t75.5 -15v-37h-532v37q66 0 94.5 33t28.5 106v1045q0 66 -24.5 102.5t-98.5 36.5v37zM426 1522h-78l-299 347h275z" />
    <glyph glyph-name="Oacute" unicode="&#xd3;" horiz-adv-x="1323" 
d="M1260 694q0 -261 -93.5 -424t-230.5 -232t-272 -69q-102 0 -206.5 37t-194 119.5t-145 224.5t-55.5 344q0 272 95.5 437t232 232t268.5 67q147 0 285 -74t227 -239.5t89 -422.5zM944 713q0 161 -12.5 275.5t-43.5 196.5t-85 125.5t-141 43.5q-107 0 -169.5 -74t-88 -216
t-25.5 -355q0 -151 11 -266.5t40 -205t85.5 -141t146.5 -51.5q114 0 176 81t84 226.5t22 360.5zM557 1522l102 347h275l-299 -347h-78z" />
    <glyph glyph-name="Ocircumflex" unicode="&#xd4;" horiz-adv-x="1323" 
d="M1260 694q0 -261 -93.5 -424t-230.5 -232t-272 -69q-102 0 -206.5 37t-194 119.5t-145 224.5t-55.5 344q0 272 95.5 437t232 232t268.5 67q147 0 285 -74t227 -239.5t89 -422.5zM944 713q0 161 -12.5 275.5t-43.5 196.5t-85 125.5t-141 43.5q-107 0 -169.5 -74t-88 -216
t-25.5 -355q0 -151 11 -266.5t40 -205t85.5 -141t146.5 -51.5q114 0 176 81t84 226.5t22 360.5zM376 1505l189 373h196l187 -373h-74l-213 193l-209 -193h-76z" />
    <glyph glyph-name="Ograve" unicode="&#xd2;" horiz-adv-x="1323" 
d="M1260 694q0 -261 -93.5 -424t-230.5 -232t-272 -69q-102 0 -206.5 37t-194 119.5t-145 224.5t-55.5 344q0 272 95.5 437t232 232t268.5 67q147 0 285 -74t227 -239.5t89 -422.5zM944 713q0 161 -12.5 275.5t-43.5 196.5t-85 125.5t-141 43.5q-107 0 -169.5 -74t-88 -216
t-25.5 -355q0 -151 11 -266.5t40 -205t85.5 -141t146.5 -51.5q114 0 176 81t84 226.5t22 360.5zM768 1522h-78l-299 347h275z" />
    <glyph glyph-name="Uacute" unicode="&#xda;" horiz-adv-x="1217" 
d="M37 1397h516l2 -37q-63 -2 -91 -32.5t-28 -100.5v-871q0 -161 66 -227t188 -66q145 0 225 80q34 34 51 106t17 161v741q0 127 -22 167.5t-91 41.5v37h310v-37q-69 -1 -95 -34.5t-26 -106.5v-846q0 -404 -451 -404q-180 0 -317 84t-137 299v869q0 69 -25 102t-92 37v37z
M524 1522l102 347h275l-299 -347h-78z" />
    <glyph glyph-name="Ucircumflex" unicode="&#xdb;" horiz-adv-x="1217" 
d="M37 1397h516l2 -37q-63 -2 -91 -32.5t-28 -100.5v-871q0 -161 66 -227t188 -66q145 0 225 80q34 34 51 106t17 161v741q0 127 -22 167.5t-91 41.5v37h310v-37q-69 -1 -95 -34.5t-26 -106.5v-846q0 -404 -451 -404q-180 0 -317 84t-137 299v869q0 69 -25 102t-92 37v37z
M323 1505l189 373h196l187 -373h-74l-213 193l-209 -193h-76z" />
    <glyph glyph-name="Ugrave" unicode="&#xd9;" horiz-adv-x="1217" 
d="M37 1397h516l2 -37q-63 -2 -91 -32.5t-28 -100.5v-871q0 -161 66 -227t188 -66q145 0 225 80q34 34 51 106t17 161v741q0 127 -22 167.5t-91 41.5v37h310v-37q-69 -1 -95 -34.5t-26 -106.5v-846q0 -404 -451 -404q-180 0 -317 84t-137 299v869q0 69 -25 102t-92 37v37z
M776 1522h-78l-299 347h275z" />
    <glyph glyph-name="dotlessi" unicode="&#x131;" horiz-adv-x="512" 
d="M139 762q0 94 -17.5 119.5t-74.5 25.5v37h342v-784q0 -60 6 -85t22.5 -31.5t55.5 -6.5v-37h-426v37q45 0 62.5 7.5t23.5 33t6 88.5v596z" />
    <glyph glyph-name="circumflex" unicode="&#x2c6;" horiz-adv-x="682" 
d="M55 1067l189 373h196l187 -373h-74l-213 193l-209 -193h-76z" />
    <glyph glyph-name="tilde" unicode="&#x2dc;" horiz-adv-x="682" 
d="M567 1391h64q-3 -134 -50 -205.5t-132 -71.5q-45 0 -78.5 14t-98.5 47t-88 33q-30 0 -45 -22t-24 -72h-64q1 81 23 145t61.5 99t89.5 35q35 0 72.5 -13.5t82 -37.5t70.5 -35t52 -11q28 0 43 21.5t22 73.5z" />
    <glyph glyph-name="macron" unicode="&#x2c9;" horiz-adv-x="682" 
d="M608 1343v-180h-534v180h534z" />
    <glyph glyph-name="breve" unicode="&#x2d8;" horiz-adv-x="682" 
d="M74 1409h65q20 -69 73 -105t134 -36q85 0 135.5 36.5t65.5 104.5h63q-2 -147 -73 -230t-193 -83q-65 0 -126.5 29.5t-102.5 100t-41 183.5z" />
    <glyph glyph-name="dotaccent" unicode="&#x2d9;" horiz-adv-x="682" 
d="M342 1374q51 0 86 -35t35 -86q0 -50 -35 -85t-86 -35t-86 35t-35 85q0 51 35 86t86 35z" />
    <glyph glyph-name="ring" unicode="&#x2da;" horiz-adv-x="682" 
d="M342 1442q52 0 94 -25t67 -68t25 -94t-24.5 -94t-67 -68.5t-94.5 -25.5q-78 0 -133 55t-55 133t54.5 132.5t133.5 54.5zM340 1374q-51 0 -85 -34t-34 -85q0 -49 34.5 -84.5t84.5 -35.5q49 0 85 36t36 84q0 50 -35.5 84.5t-85.5 34.5z" />
    <glyph glyph-name="cedilla" unicode="&#xb8;" horiz-adv-x="682" 
d="M147 -428v72q97 3 139 26t42 74q0 76 -97 90l150 166h94l-57 -72q60 -21 88.5 -57t28.5 -94q0 -112 -93.5 -158.5t-294.5 -46.5z" />
    <glyph glyph-name="hungarumlaut" unicode="&#x2dd;" horiz-adv-x="682" 
d="M449 1083l102 347h274l-299 -347h-77zM100 1083l103 347h274l-299 -347h-78z" />
    <glyph glyph-name="ogonek" unicode="&#x2db;" horiz-adv-x="682" 
d="M293 10h74q-27 -24 -45.5 -67t-18.5 -86q0 -46 27 -92t73 -75.5t96 -29.5q9 0 25 2l23 -33q-67 -67 -172 -67q-62 0 -117 31.5t-89 85t-34 114.5q0 67 43.5 126.5t114.5 90.5z" />
    <glyph glyph-name="caron" unicode="&#x2c7;" horiz-adv-x="682" 
d="M627 1440l-189 -373h-196l-187 373h74l213 -193l209 193h76z" />
    <glyph glyph-name="Lslash" unicode="&#x141;" horiz-adv-x="1110" 
d="M1032 479h37l-51 -479h-985v37q97 0 127 30.5t30 114.5v369l-153 -94v92l153 94v580q0 71 -27.5 104.5t-105.5 33.5q-15 0 -24 -1v37h610v-37q-6 0 -12 0.5t-14 0.5q-83 0 -113.5 -31t-30.5 -107v-426l297 182v-92l-297 -182v-506q0 -72 23.5 -97.5t83.5 -25.5
q132 0 212.5 30.5t136.5 116.5t103 256z" />
    <glyph glyph-name="lslash" unicode="&#x142;" horiz-adv-x="512" 
d="M389 1397v-547l119 102v-98l-119 -100v-594q0 -60 5.5 -85t23 -31.5t57.5 -6.5v-37h-436v37q62 0 81 18t19 80v426l-121 -100v92l121 102v572q0 66 -6.5 92t-26 33.5t-67.5 7.5v37h350z" />
    <glyph glyph-name="Scaron" unicode="&#x160;" 
d="M813 975h-37q-30 171 -123 275t-217 104q-55 0 -103 -27t-75 -74t-27 -104q0 -83 64 -145q30 -30 101.5 -73l132.5 -77t118.5 -71t95.5 -76q127 -128 127 -318q0 -118 -51 -214.5t-141.5 -151t-200.5 -54.5q-63 0 -110.5 14t-117.5 41t-91 27q-56 0 -74 -82h-35v518h37
q18 -130 71 -230t132 -156t170 -56q90 0 149.5 66.5t59.5 167.5q0 58 -15.5 94.5t-54.5 75.5q-37 37 -125.5 90.5l-171.5 104.5t-127 95q-68 68 -97.5 140t-29.5 161q0 172 99.5 281t254.5 109q64 0 108.5 -15.5t105 -44.5t81.5 -29q29 0 45 20.5t23 68.5h37zM745 1878
l-189 -373h-196l-187 373h74l213 -193l209 193h76z" />
    <glyph glyph-name="scaron" unicode="&#x161;" horiz-adv-x="705" 
d="M608 969v-320h-35q-16 69 -51.5 125.5t-86 91.5t-107.5 35q-52 0 -84.5 -27t-32.5 -71q0 -35 10 -56.5t39 -52.5q28 -26 74 -53.5l87.5 -51t87 -54t83.5 -68.5q72 -72 72 -191q0 -84 -39 -152.5t-107 -108.5t-151 -40q-50 0 -91.5 11.5t-85.5 30t-53 18.5q-43 0 -43 -60
h-37l-8 336h37q52 -137 128.5 -198.5t147.5 -61.5q51 0 84 33t33 84q0 59 -45 102q-26 26 -92 66l-123.5 74.5t-99.5 76.5q-44 44 -61 88t-17 105q0 123 75 206t185 83q44 0 74.5 -7t58 -18.5t50 -20t38.5 -8.5q33 0 49 54h37zM639 1454l-189 -373h-196l-187 373h74
l213 -193l209 193h76z" />
    <glyph glyph-name="Zcaron" unicode="&#x17d;" horiz-adv-x="1110" 
d="M1028 492h39l-47 -492h-979l661 1321h-200q-113 0 -175.5 -23.5t-98.5 -92.5t-60 -206h-37l31 398h885l-666 -1321h190q114 0 193.5 22.5t130.5 70t84 129t49 194.5zM842 1878l-189 -373h-196l-187 373h74l213 -193l209 193h76z" />
    <glyph glyph-name="zcaron" unicode="&#x17e;" horiz-adv-x="811" 
d="M735 319h37l-37 -319h-698v37l448 844h-133q-93 0 -145 -41t-72 -170h-35v274h672v-37l-442 -846h51q105 0 175 25.5t112.5 82.5t66.5 150zM692 1454l-189 -373h-196l-187 373h74l213 -193l209 193h76z" />
    <glyph glyph-name="brokenbar" unicode="&#xa6;" horiz-adv-x="449" 
d="M131 358h186v-716h-186v716zM131 1382h186v-716h-186v716z" />
    <glyph glyph-name="Eth" unicode="&#xd0;" horiz-adv-x="1217" 
d="M39 1397h532q150 0 263.5 -56t183.5 -151.5t104.5 -222t34.5 -267.5q0 -186 -57.5 -343.5t-197 -257t-367.5 -99.5h-496v37q72 0 102.5 33.5t30.5 107.5v488h-133v67h133v488q0 73 -27 106t-106 33v37zM455 1321v-588h194v-67h-194v-455q0 -56 7.5 -84.5t27 -39.5
t55.5 -11q111 0 180 67q63 64 90 221.5t27 329.5q0 198 -32.5 345.5t-100.5 215.5q-23 24 -76.5 45t-122.5 21h-55z" />
    <glyph glyph-name="eth" unicode="&#xf0;" horiz-adv-x="938" 
d="M432 1169l-231 -143l-31 59l221 138q-63 77 -170 161l21 37q74 -32 121.5 -60.5t119.5 -82.5l215 135l29 -59l-190 -119q118 -107 192 -215.5t109.5 -226.5t35.5 -254q0 -131 -28 -235t-79 -176.5t-126.5 -112.5t-169.5 -40q-116 0 -208.5 63.5t-143.5 177.5t-51 259
q0 138 44 248.5t123.5 170.5t182.5 60q57 0 135 -30q-26 77 -51.5 128.5t-69.5 116.5zM338 598v-281q0 -274 129 -274q83 0 110 89.5t27 322.5v135q0 165 -30.5 231t-100.5 66q-47 0 -76.5 -29t-44 -94t-14.5 -166z" />
    <glyph glyph-name="Yacute" unicode="&#xdd;" horiz-adv-x="1110" 
d="M1073 1397v-37q-28 -6 -43.5 -20.5t-33.5 -55t-56 -141.5l-213 -572v-354q0 -106 25 -143.5t116 -37.5q21 0 33 1v-37h-635v37q14 -1 39 -1q80 0 109.5 30t29.5 108v340l-249 635q-36 91 -57.5 135.5t-40 56.5t-62.5 19v37h516v-37q-8 1 -22 1q-46 0 -69.5 -15.5
t-23.5 -40.5q0 -19 21 -68l223 -580l188 506q35 93 35 133q0 61 -104 64v37h274zM573 1522l102 347h275l-299 -347h-78z" />
    <glyph glyph-name="yacute" unicode="&#xfd;" horiz-adv-x="811" 
d="M776 944v-37q-38 -11 -57.5 -43t-44.5 -127l-230 -891q-38 -149 -89.5 -212.5t-139.5 -63.5q-73 0 -119.5 43.5t-46.5 110.5q0 55 31.5 90.5t81.5 35.5q43 0 70.5 -28.5t27.5 -69.5q0 -11 -0.5 -19t-1.5 -18q0 -43 29 -43q45 0 88 158l26 96l-295 887q-17 53 -30.5 70
t-42.5 24v37h401v-37q-80 -3 -80 -49q0 -16 29 -104l125 -389h4l90 354q21 86 21 119q0 55 -70 69v37h223zM362 1098l102 347h275l-299 -347h-78z" />
    <glyph glyph-name="Thorn" unicode="&#xde;" horiz-adv-x="1110" 
d="M449 1098h61q211 0 306 -26.5t153 -84.5q47 -46 78.5 -118t31.5 -144q0 -67 -24 -133.5t-82 -126t-155 -94.5t-236 -35h-133v-164q0 -48 11.5 -77.5t40 -44t78.5 -14.5q6 0 10 0.5t11 0.5v-37h-565v37q76 0 103.5 34t27.5 107v1000q0 72 -6 107t-33.5 55t-91.5 20v37h543
v-37q-86 0 -107.5 -37.5t-21.5 -114.5v-110zM449 1022v-610h86q83 0 134 35t73 105t22 171q0 157 -57.5 228t-186.5 71h-71z" />
    <glyph glyph-name="thorn" unicode="&#xfe;" 
d="M381 1397v-563h4q63 135 193 135q88 0 156 -59t104 -168t36 -250q0 -148 -38 -267t-107 -184.5t-158 -65.5q-49 0 -92.5 25.5t-97.5 85.5v-348q0 -60 5.5 -86t22.5 -34.5t58 -8.5h20v-37h-444v37q41 0 58.5 7t23.5 31t6 85v1503q0 63 -6 87.5t-23.5 31t-58.5 6.5v37h338z
M381 731v-553q28 -50 61.5 -76t61.5 -26q37 0 59 44.5t31.5 135t9.5 217.5q0 373 -115 373q-58 0 -108 -115z" />
    <glyph glyph-name="minus" unicode="&#x2212;" horiz-adv-x="1366" 
d="M131 786h1104v-180h-1104v180z" />
    <glyph glyph-name="multiply" unicode="&#xd7;" horiz-adv-x="1368" 
d="M297 1210l387 -387l387 387l127 -127l-387 -387l387 -387l-127 -127l-387 387l-387 -387l-127 127l387 387l-387 387z" />
    <glyph glyph-name="onesuperior" unicode="&#xb9;" horiz-adv-x="575" 
d="M393 1419v-600q0 -64 13 -85t51 -21h45v-33h-430v33h59q39 0 51.5 21t12.5 85v359q0 68 -9 91t-43 23q-27 0 -80 -18l-12 31l305 114h37z" />
    <glyph glyph-name="twosuperior" unicode="&#xb2;" horiz-adv-x="575" 
d="M492 901h47l-39 -221h-457v25l98 104q100 107 139 181t39 151q0 66 -30 104.5t-80 38.5q-78 0 -107 -90l-45 12q21 101 84 157t156 56q96 0 155.5 -53.5t59.5 -138.5q0 -57 -24 -112.5t-84.5 -125.5t-161.5 -164h149q44 0 64 16t37 60z" />
    <glyph glyph-name="threesuperior" unicode="&#xb3;" horiz-adv-x="575" 
d="M188 1044v29q134 29 134 131q0 47 -27.5 77t-71.5 30q-64 0 -114 -82l-41 12q27 62 61.5 102t77 58t96.5 18q55 0 98 -19t67 -53t24 -81q0 -86 -89 -138q129 -61 129 -196q0 -118 -84.5 -190t-222.5 -72q-78 0 -129 26.5t-51 65.5q0 25 18.5 41t47.5 16q25 0 45 -11.5
t51.5 -38t46.5 -35.5t39 -9q44 0 71 27t27 71q0 80 -56 141t-147 80z" />
    <glyph glyph-name="onehalf" unicode="&#xbd;" horiz-adv-x="1450" 
d="M1325 219h47l-39 -219h-456v23l98 104q100 107 139 181t39 151q0 66 -30 104.5t-81 38.5q-79 0 -106 -90l-45 12q21 101 84 157t155 56q97 0 156.5 -53.5t59.5 -138.5q0 -57 -23.5 -111.5t-86.5 -127t-161 -163.5h150q43 0 63 16t37 60zM367 -12h-95l813 1431h95z
M414 1419v-600q0 -64 12.5 -85t50.5 -21h45v-31h-430v31h60q38 0 50.5 21t12.5 85v359q0 71 -9 92.5t-42 21.5q-27 0 -80 -18l-12 31l305 114h37z" />
    <glyph glyph-name="onequarter" unicode="&#xbc;" horiz-adv-x="1450" 
d="M1264 0h-187v158h-256v114l355 465h88v-458h75v-121h-75v-158zM1077 279v227h-4l-170 -227h174zM367 -12h-95l813 1431h95zM414 1419v-600q0 -64 12.5 -85t50.5 -21h45v-31h-430v31h60q38 0 50.5 21t12.5 85v359q0 71 -9 92.5t-42 21.5q-27 0 -80 -18l-12 31l305 114h37z
" />
    <glyph glyph-name="threequarters" unicode="&#xbe;" horiz-adv-x="1450" 
d="M367 -12h-95l813 1431h95zM209 1044v29q133 29 133 131q0 47 -27.5 77t-70.5 30q-64 0 -115 -82l-41 12q42 94 97.5 136t138.5 42q85 0 136.5 -42.5t51.5 -110.5q0 -86 -88 -138q129 -61 129 -196q0 -76 -37.5 -136t-107.5 -93t-162 -33q-78 0 -129 26.5t-51 65.5
q0 25 18 41t47 16q32 0 62 -23.5l60 -47t60 -23.5q45 0 72 27t27 71q0 80 -56 141t-147 80zM1264 0h-187v158h-256v114l355 465h88v-458h75v-121h-75v-158zM1077 279v227h-4l-170 -227h174z" />
    <glyph glyph-name="sfthyphen" unicode="&#xad;" horiz-adv-x="598" 
d="M37 377v196h522v-196h-522z" />
    <glyph glyph-name="overscore" unicode="&#xaf;" horiz-adv-x="1024" 
d="M-12 1446h1048v-102h-1048v102z" />
    <glyph glyph-name="middot" unicode="&#xb7;" horiz-adv-x="512" 
d="M258 848q64 0 107 -43t43 -107t-43.5 -107.5t-106.5 -43.5q-42 0 -76 19.5t-55 54t-21 77.5q0 64 44 107t108 43z" />
    <glyph glyph-name="fraction1" unicode="&#x2044;" horiz-adv-x="299" 
d="M-211 -12h-94l813 1431h94z" />
    <glyph glyph-name="currency" unicode="&#xa4;" horiz-adv-x="1409" 
d="M965 674q0 54 -20 103.5t-55 86.5t-83.5 58.5t-104.5 21.5q-72 0 -131 -37t-93 -99.5t-34 -133.5q0 -74 34 -137t93 -100.5t131 -37.5q56 0 105 22.5t83 58.5t54.5 87.5t20.5 106.5zM139 225l201 201q-76 102 -76 248q0 72 21 135.5t55 112.5l-201 200l119 115l197 -197
q105 72 247 72q147 0 252 -72l197 197l119 -115l-201 -200q76 -113 76 -248q0 -74 -20 -138.5t-56 -109.5l201 -201l-119 -119l-197 201q-49 -33 -114 -54.5t-138 -21.5q-69 0 -132 21t-115 55l-197 -201z" />
    </font>
</defs>
</svg>
