<?xml version="1.0" encoding="utf-8"?>
<!-- Generator: Adobe Illustrator 19.0.0, SVG Export Plug-In . SVG Version: 6.00 Build 0)  -->
<svg version="1.1" id="Layer_1" xmlns="http://www.w3.org/2000/svg" xmlns:xlink="http://www.w3.org/1999/xlink" x="0px" y="0px"
	 viewBox="0 0 35 35" style="enable-background:new 0 0 35 35;" xml:space="preserve">
<style type="text/css">
	.st0{fill:#231F20;}
</style>
<g>
	<g>
		<path class="st0" d="M32.7,35H2.3C1,35,0,34,0,32.7V2.3C0,1,1,0,2.3,0h30.4C34,0,35,1,35,2.3v30.4C35,34,34,35,32.7,35z M2.3,1.2
			c-0.6,0-1.1,0.5-1.1,1.1v30.4c0,0.6,0.5,1.1,1.1,1.1h30.4c0.6,0,1.1-0.5,1.1-1.1V2.3c0-0.6-0.5-1.1-1.1-1.1H2.3z"/>
	</g>
	<g id="Facebook_13_">
		<path class="st0" d="M19.8,29.3h-5.8V18.1h-2.3v-5h2.3v-2.5h0.6l-0.6,0c0-1.8,0.7-2.9,1.3-3.5c0.9-0.9,2.3-1.4,4.1-1.4h4v5.1h-3.1
			c-0.2,0-0.4,0.2-0.4,0.3v2h3.6l0,0.6c-0.1,2-0.4,3.8-0.4,3.8l-0.1,0.5h-3V29.3z M15.1,28.1h3.5V16.9h3.2c0.1-0.6,0.2-1.5,0.3-2.6
			h-3.5v-3.2c0-0.7,0.8-1.5,1.6-1.5h1.9V6.9h-2.8c-1.4,0-2.5,0.4-3.2,1.1c-0.6,0.6-0.9,1.5-0.9,2.7v3.7h-2.3v2.6h2.3V28.1z"/>
	</g>
</g>
</svg>
