<?xml version="1.0" encoding="utf-8"?>
<!-- Generator: Adobe Illustrator 19.0.0, SVG Export Plug-In . SVG Version: 6.00 Build 0)  -->
<svg version="1.1" id="Layer_1" xmlns="http://www.w3.org/2000/svg" xmlns:xlink="http://www.w3.org/1999/xlink" x="0px" y="0px"
	 viewBox="0 0 35 35" style="enable-background:new 0 0 35 35;" xml:space="preserve">
<style type="text/css">
	.st0{fill:#231F20;}
</style>
<g id="XMLID_58_">
	<g id="XMLID_69_">
		<g id="XMLID_70_">
			<path id="XMLID_275_" class="st0" d="M32.7,35H2.3C1,35,0,34,0,32.7V2.3C0,1,1,0,2.3,0h30.4C34,0,35,1,35,2.3v30.4
				C35,34,34,35,32.7,35z M2.3,1.2c-0.6,0-1.1,0.5-1.1,1.1v30.4c0,0.6,0.5,1.1,1.1,1.1h30.4c0.6,0,1.1-0.5,1.1-1.1V2.3
				c0-0.6-0.5-1.1-1.1-1.1H2.3z"/>
		</g>
	</g>
	<g id="XMLID_65_">
		<path id="XMLID_66_" class="st0" d="M21.6,27.1h-8.2c-3.1,0-5.6-2.5-5.6-5.6V13c0-3.1,2.5-5.6,5.6-5.6h8.2c3.1,0,5.6,2.5,5.6,5.6
			v8.5C27.2,24.6,24.7,27.1,21.6,27.1z M13.4,8.5C11,8.5,9,10.5,9,13v8.5c0,2.5,2,4.4,4.4,4.4h8.2c2.5,0,4.4-2,4.4-4.4V13
			c0-2.5-2-4.4-4.4-4.4H13.4z"/>
	</g>
	<g id="XMLID_61_">
		<path id="XMLID_62_" class="st0" d="M17.5,22.2c-2.6,0-4.7-2.1-4.7-4.7s2.1-4.7,4.7-4.7s4.7,2.1,4.7,4.7S20.1,22.2,17.5,22.2z
			 M17.5,14.1c-1.9,0-3.5,1.6-3.5,3.5s1.6,3.5,3.5,3.5s3.5-1.6,3.5-3.5S19.4,14.1,17.5,14.1z"/>
	</g>
	<g id="XMLID_59_">
		<circle id="XMLID_60_" class="st0" cx="22.7" cy="11.3" r="1"/>
	</g>
</g>
</svg>
