<?xml version="1.0" encoding="utf-8"?>
<!-- Generator: Adobe Illustrator 19.0.0, SVG Export Plug-In . SVG Version: 6.00 Build 0)  -->
<svg version="1.1" id="Layer_1" xmlns="http://www.w3.org/2000/svg" xmlns:xlink="http://www.w3.org/1999/xlink" x="0px" y="0px"
	 viewBox="0 0 35 35" style="enable-background:new 0 0 35 35;" xml:space="preserve">
<style type="text/css">
	.st0{fill:#231F20;}
</style>
<g id="XMLID_45_">
	<g id="XMLID_49_">
		<path id="XMLID_50_" class="st0" d="M32.7,35H2.3C1,35,0,34,0,32.7V2.3C0,1,1,0,2.3,0h30.4C34,0,35,1,35,2.3v30.4
			C35,34,34,35,32.7,35z M2.3,1.2c-0.6,0-1.1,0.5-1.1,1.1v30.4c0,0.6,0.5,1.1,1.1,1.1h30.4c0.6,0,1.1-0.5,1.1-1.1V2.3
			c0-0.6-0.5-1.1-1.1-1.1H2.3z"/>
	</g>
	<g id="Twitter_13_">
		<path id="XMLID_46_" class="st0" d="M23.5,28.1h-5.1c-2.3,0-4.3-0.8-5.9-2.4c-1.6-1.6-2.4-3.6-2.4-5.9V9.4c0-0.9,0.3-1.7,0.9-2.3
			c1.2-1.2,3.2-1.2,4.5,0c0.6,0.6,0.9,1.4,0.9,2.2v3.2h6.7c0.8,0,1.5,0.3,2.1,0.9c0.6,0.6,0.9,1.3,0.9,2.1c0,0.8-0.3,1.5-0.9,2.1
			c-0.6,0.6-1.3,0.9-2.1,0.9h-6.7v1.2c0,0.6,0.2,1,0.6,1.4c0.4,0.4,0.8,0.6,1.4,0.6h5.1c0.9,0,1.6,0.3,2.2,0.9
			c0.6,0.6,0.9,1.4,0.9,2.2c0,0.9-0.3,1.6-0.9,2.2C25.1,27.8,24.4,28.1,23.5,28.1z M13.3,7.4c-0.6,0-1,0.2-1.4,0.6
			c-0.4,0.4-0.6,0.8-0.6,1.4v10.4c0,2,0.7,3.6,2.1,5c1.4,1.4,3.1,2.1,5,2.1h5.1c0.5,0,1-0.2,1.4-0.6c0.4-0.4,0.6-0.8,0.6-1.4
			c0-0.6-0.2-1-0.6-1.4c-0.4-0.4-0.9-0.6-1.4-0.6h-5.1c-0.9,0-1.6-0.3-2.2-0.9c-0.6-0.6-0.9-1.4-0.9-2.2v-2.4h7.9
			c0.5,0,0.9-0.2,1.3-0.5c0.4-0.4,0.5-0.8,0.5-1.3c0-0.5-0.2-0.9-0.5-1.3c-0.4-0.4-0.8-0.5-1.3-0.5h-7.9V9.4c0-0.5-0.2-1-0.6-1.4
			C14.3,7.6,13.8,7.4,13.3,7.4z"/>
	</g>
</g>
</svg>
