<?xml version="1.0" encoding="utf-8"?>
<!-- Generator: Adobe Illustrator 19.0.0, SVG Export Plug-In . SVG Version: 6.00 Build 0)  -->
<svg version="1.1" id="Layer_1" xmlns="http://www.w3.org/2000/svg" xmlns:xlink="http://www.w3.org/1999/xlink" x="0px" y="0px"
	 viewBox="0 0 35 35" style="enable-background:new 0 0 35 35;" xml:space="preserve">
<style type="text/css">
	.st0{fill:#231F20;}
</style>
<g id="XMLID_58_">
	<g id="XMLID_63_">
		<g id="XMLID_64_">
			<path id="XMLID_65_" class="st0" d="M32.7,35H2.3C1,35,0,34,0,32.7V2.3C0,1,1,0,2.3,0h30.4C34,0,35,1,35,2.3v30.4
				C35,34,34,35,32.7,35z M2.3,1.2c-0.6,0-1.1,0.5-1.1,1.1v30.4c0,0.6,0.5,1.1,1.1,1.1h30.4c0.6,0,1.1-0.5,1.1-1.1V2.3
				c0-0.6-0.5-1.1-1.1-1.1H2.3z"/>
		</g>
	</g>
	<g id="XMLID_59_">
		<path id="XMLID_60_" class="st0" d="M11.2,25.2c-0.1,0-0.2,0-0.3-0.1c-0.2-0.1-0.3-0.3-0.3-0.5V9.7c0-0.2,0.1-0.4,0.3-0.5
			c0.2-0.1,0.4-0.1,0.6,0l14.3,7.5c0.2,0.1,0.3,0.3,0.3,0.5c0,0.2-0.1,0.4-0.3,0.5l-14.3,7.5C11.4,25.2,11.3,25.2,11.2,25.2z
			 M11.8,10.7v13l12.4-6.5L11.8,10.7z"/>
	</g>
</g>
</svg>
